# ProBuilder 4.4.0
# https://unity3d.com/unity/features/worldbuilding/probuilder
# 2/18/2021 4:37:45 PM

mtllib ./sidewalk-a1-PRO.mtl
o sidewalk-a1-PRO

g Cube (1)
v -4.999998 -0.3 5.000002
v -4.999997 -0.3 -4.999999
v -15 -0.3 5.000001
v -15 -0.3 -5
v -15 -0.1 -5
v -15 -0.1 5.000001
v -5.935843 -0.1 -4.999999
v -4.999997 -0.2846285 -4.999999
v -4.999998 -0.2846285 5.000002
v -5.935843 -0.1 5.000002

vt 0 -1
vt -1 -1
vt 0 0
vt -1 0
vt -1 1
vt 0 1
vt -0.9064155 1
vt -1 0.07685758
vt 1 0.07685758
vt 7.450581E-09 0.07685758
vt 1 0
vt 0.9064155 1
vt 7.450581E-09 -0.9064155
vt 1 -0.9064155
vt -0.5000019 -0.006371915
vt 0.4999981 0.1006837
vt 0.499998 -0.006371915
vt -0.5000019 0.1006837

vn 0 -0.2 0
vn -10 0 -1.192093E-06
vn 1.192093E-06 0 -10
vn 10 0 1.192093E-06
vn 8.370334E-06 1.938802E-08 10
vn 0 0.2 0
vn 9.949009 0.02017182 1.186014E-06

usemtl sidewalk-a1
f 7/7/3 4/3/3 5/6/3
f 4/3/3 7/7/3 2/4/3
f 7/7/3 8/8/3 2/4/3
f 1/11/5 9/9/5 10/12/5
f 1/11/5 10/12/5 3/3/5
f 6/6/5 3/3/5 10/12/5
f 10/13/6 7/14/6 5/11/6
f 5/11/6 6/3/6 10/13/6
f 9/15/7 8/17/7 7/16/7
f 7/16/7 10/18/7 9/15/7
f 4/4/1 2/2/1 1/1/1
f 1/1/1 3/3/1 4/4/1
f 8/9/4 9/10/4 1/3/4
f 1/3/4 2/11/4 8/9/4
f 6/6/2 5/5/2 4/4/2
f 4/4/2 3/3/2 6/6/2

