# ProBuilder 4.4.0
# https://unity3d.com/unity/features/worldbuilding/probuilder
# 2/18/2021 6:50:56 PM

mtllib ./sidewalk-a1-PRO.mtl
o sidewalk-a1-PRO

g Cube (1)
v -4.999994 -0.4014486 -5
v -4.999993 -0.4014486 -15
v -15 -0.4014486 -5.000001
v -15 -0.4014486 -15.00001
v -15 0 -15
v -15 0 -5
v -5.935843 0 -15
v -4.999998 -0.1846285 -15
v -4.999999 -0.1846285 -4.999999
v -5.935844 0 -4.999999

vt -7.301572E-08 -1
vt -1 -1
vt -9.685757E-08 -4.470381E-09
vt -1.000001 1.937151E-08
vt -9.685757E-08 -1.007243
vt -1.000001 -1.007243
vt -1 1
vt 0 1
vt 15 -4.454216E-06
vt 15 -0.4014531
vt 5.935845 -4.454216E-06
vt 4.999997 -0.4014523
vt 5.00006 -0.4014552
vt 5.000065 -0.1846351
vt 15 -0.1846263
vt 4.999999 -0.1846263
vt -5.935848 -3.023951E-07
vt -5.000003 -0.1846288
vt -4.999998 -0.4014489
vt -15 -0.4014488
vt -15 -2.4127E-07
vt 7.450581E-09 -0.9064155
vt 1 0
vt 1 -0.9064155
vt 9.499999 -0.05807835
vt 10.5 0.04897723
vt 10.5 -0.05807835
vt 9.499999 0.04897723

vn 0 -0.2 0
vn -10 -4.454251E-10 -9.536741E-07
vn 1.192093E-06 5.938956E-08 -10
vn 10 8.796916E-08 1.192093E-06
vn -7.15791E-06 -1.209582E-08 10
vn 0 0.2 0
vn 9.949009 0.02017182 1.186014E-06

usemtl sidewalk-a1
f 7/11/3 4/10/3 5/9/3
f 4/10/3 7/11/3 2/12/3
f 7/11/3 8/14/3 2/13/3
f 1/19/5 9/18/5 10/17/5
f 1/19/5 10/17/5 3/20/5
f 6/21/5 3/20/5 10/17/5
f 10/22/6 7/24/6 5/23/6
f 5/23/6 6/3/6 10/22/6
f 9/25/7 8/27/7 7/26/7
f 7/26/7 10/28/7 9/25/7
f 4/4/1 2/2/1 1/1/1
f 1/1/1 3/3/1 4/4/1
f 8/15/4 9/16/4 1/12/4
f 1/12/4 2/10/4 8/15/4
f 6/8/2 5/7/2 4/6/2
f 4/6/2 3/5/2 6/8/2

