# MagicaVoxel @ Ephtracy

# group
o 

# material
mtllib Random Apartments.mtl
usemtl palette

# normals
vn -1 0 0
vn 1 0 0
vn 0 0 1
vn 0 0 -1
vn 0 -1 0
vn 0 1 0

# texcoords
vt 0.705078 0.5
vt 0.966797 0.5
vt 0.990234 0.5

# verts
v -3.2 0 5.2
v -3.2 0 -6.3
v -3.2 2.5 6.3
v -3.2 2.5 6.2
v -3.2 2.5 5.2
v -3.2 2.6 6.3
v -3.2 2.6 6.2
v -3.2 2.6 5.8
v -3.2 3.9 6.3
v -3.2 3.9 6.2
v -3.2 3.9 5.8
v -3.2 4.1 6.3
v -3.2 4.1 6.2
v -3.2 4.1 5.8
v -3.2 5.3 6.3
v -3.2 5.3 6.2
v -3.2 5.3 5.8
v -3.2 5.5 6.3
v -3.2 5.5 6.2
v -3.2 5.5 5.9
v -3.2 6.7 6.3
v -3.2 6.7 6.2
v -3.2 6.7 5.9
v -3.2 6.9 6.3
v -3.2 6.9 6.2
v -3.2 6.9 5.9
v -3.2 8.3 6.3
v -3.2 8.3 6.2
v -3.2 8.3 5.9
v -3.2 8.5 6.3
v -3.2 8.5 6.2
v -3.2 8.5 5.9
v -3.2 9.6 6.3
v -3.2 9.6 6.2
v -3.2 9.6 5.9
v -3.2 9.7 6.3
v -3.2 9.7 6.2
v -3.2 9.7 5.8
v -3.2 11.2 6.3
v -3.2 11.2 6.2
v -3.2 11.2 5.8
v -3.2 11.4 6.3
v -3.2 11.4 6.2
v -3.2 11.4 -3.7
v -3.2 12.6 -3.7
v -3.2 12.6 -6.3
v 3.1 0 5.2
v 3.1 0 -6.3
v 3.1 2.5 6.3
v 3.1 2.5 6.2
v 3.1 2.5 5.2
v 3.1 2.6 6.3
v 3.1 2.6 6.2
v 3.1 2.6 5.8
v 3.1 3.9 6.3
v 3.1 3.9 6.2
v 3.1 3.9 5.8
v 3.1 4.1 6.3
v 3.1 4.1 6.2
v 3.1 4.1 5.8
v 3.1 5.3 6.3
v 3.1 5.3 6.2
v 3.1 5.3 5.8
v 3.1 5.5 6.3
v 3.1 5.5 6.2
v 3.1 5.5 5.9
v 3.1 6.7 6.3
v 3.1 6.7 6.2
v 3.1 6.7 5.9
v 3.1 6.9 6.3
v 3.1 6.9 6.2
v 3.1 6.9 5.9
v 3.1 8.3 6.3
v 3.1 8.3 6.2
v 3.1 8.3 5.9
v 3.1 8.5 6.3
v 3.1 8.5 6.2
v 3.1 8.5 5.9
v 3.1 9.6 6.3
v 3.1 9.6 6.2
v 3.1 9.6 5.9
v 3.1 9.7 6.3
v 3.1 9.7 6.2
v 3.1 9.7 5.8
v 3.1 11.2 6.3
v 3.1 11.2 6.2
v 3.1 11.2 5.8
v 3.1 11.4 6.3
v 3.1 11.4 6.2
v 3.1 11.4 -3.7
v 3.1 12.6 -3.7
v 3.1 12.6 -6.3
v -3.2 2.5 6.3
v -3.2 2.6 6.3
v -3.2 3.9 6.3
v -3.2 4.1 6.3
v -3.2 5.3 6.3
v -3.2 5.5 6.3
v -3.2 6.7 6.3
v -3.2 6.9 6.3
v -3.2 8.3 6.3
v -3.2 8.5 6.3
v -3.2 9.6 6.3
v -3.2 9.7 6.3
v -3.2 11.2 6.3
v -3.2 11.4 6.3
v 3.1 2.5 6.3
v 3.1 2.6 6.3
v 3.1 3.9 6.3
v 3.1 4.1 6.3
v 3.1 5.3 6.3
v 3.1 5.5 6.3
v 3.1 6.7 6.3
v 3.1 6.9 6.3
v 3.1 8.3 6.3
v 3.1 8.5 6.3
v 3.1 9.6 6.3
v 3.1 9.7 6.3
v 3.1 11.2 6.3
v 3.1 11.4 6.3
v -3.2 5.5 5.9
v -3.2 6.7 5.9
v -3.2 6.9 5.9
v -3.2 8.3 5.9
v -3.2 8.5 5.9
v -3.2 9.6 5.9
v 3.1 5.5 5.9
v 3.1 6.7 5.9
v 3.1 6.9 5.9
v 3.1 8.3 5.9
v 3.1 8.5 5.9
v 3.1 9.6 5.9
v -3.2 2.6 5.8
v -3.2 3.9 5.8
v -3.2 4.1 5.8
v -3.2 5.3 5.8
v -3.2 9.7 5.8
v -3.2 11.2 5.8
v 3.1 2.6 5.8
v 3.1 3.9 5.8
v 3.1 4.1 5.8
v 3.1 5.3 5.8
v 3.1 9.7 5.8
v 3.1 11.2 5.8
v -3.2 0 5.2
v -3.2 2.5 5.2
v -2.5 1.7 5.2
v -2.5 2.3 5.2
v -2.4 1.7 5.2
v -2.4 1.9 5.2
v -2.4 2.1 5.2
v -2.4 2.2 5.2
v -2.3 1.8 5.2
v -2.3 1.9 5.2
v -2.3 2 5.2
v -2.2 1.7 5.2
v -2.2 1.8 5.2
v -2.2 1.9 5.2
v -2.2 2.1 5.2
v -2.2 2.2 5.2
v -2.1 1 5.2
v -2.1 1.3 5.2
v -2.1 1.7 5.2
v -2.1 1.8 5.2
v -2.1 2 5.2
v -2.1 2.3 5.2
v -2 1 5.2
v -2 1.2 5.2
v -2 1.3 5.2
v -2 1.5 5.2
v -2 1.7 5.2
v -2 1.9 5.2
v -1.9 1.3 5.2
v -1.9 1.5 5.2
v -1.9 1.6 5.2
v -1.9 1.7 5.2
v -1.9 1.9 5.2
v -1.9 2.3 5.2
v -1.8 1.9 5.2
v -1.8 2 5.2
v -1.8 2.1 5.2
v -1.8 2.2 5.2
v -1.7 1.3 5.2
v -1.7 1.5 5.2
v -1.7 1.6 5.2
v -1.7 1.9 5.2
v -1.7 2 5.2
v -1.7 2.1 5.2
v -1.7 2.2 5.2
v -1.6 1 5.2
v -1.6 1.2 5.2
v -1.6 1.3 5.2
v -1.6 1.5 5.2
v -1.6 1.7 5.2
v -1.6 1.9 5.2
v -1.6 2.3 5.2
v -1.5 1 5.2
v -1.5 1.3 5.2
v -1.5 1.7 5.2
v -1.5 1.9 5.2
v -1.4 1 5.2
v -1.4 1.6 5.2
v -1.4 1.7 5.2
v -1.4 2.3 5.2
v -1.3 1 5.2
v -1.3 1.3 5.2
v -1.3 1.4 5.2
v -1.3 1.5 5.2
v -1.3 1.7 5.2
v -1.3 2.1 5.2
v -1.3 2.2 5.2
v -1.3 2.3 5.2
v -1.2 1.4 5.2
v -1.2 1.5 5.2
v -1.2 1.9 5.2
v -1.2 2.1 5.2
v -1.2 2.2 5.2
v -1.1 1 5.2
v -1.1 1.2 5.2
v -1.1 1.3 5.2
v -1.1 1.6 5.2
v -1.1 1.7 5.2
v -1.1 1.9 5.2
v -1.1 2.1 5.2
v -1 1 5.2
v -1 1.2 5.2
v -1 1.4 5.2
v -1 1.9 5.2
v -1 2.3 5.2
v -0.9 1.3 5.2
v -0.9 1.4 5.2
v -0.9 1.6 5.2
v -0.9 1.7 5.2
v -0.9 2.3 5.2
v -0.8 1.4 5.2
v -0.8 1.5 5.2
v -0.8 1.7 5.2
v -0.8 2.3 5.2
v -0.7 1.4 5.2
v -0.7 1.5 5.2
v -0.7 1.8 5.2
v -0.7 2.2 5.2
v -0.6 1.3 5.2
v -0.6 1.4 5.2
v -0.6 1.6 5.2
v -0.5 1 5.2
v -0.5 1.2 5.2
v -0.5 1.4 5.2
v -0.5 1.7 5.2
v -0.5 1.8 5.2
v -0.5 2.2 5.2
v -0.5 2.3 5.2
v -0.4 1 5.2
v -0.4 1.2 5.2
v -0.4 1.8 5.2
v -0.4 2.2 5.2
v -0.3 1 5.2
v -0.3 1.6 5.2
v -0.3 1.8 5.2
v -0.3 2.2 5.2
v -0.2 1 5.2
v -0.2 1.3 5.2
v -0.2 1.4 5.2
v -0.2 1.5 5.2
v -0.2 1.7 5.2
v -0.2 1.8 5.2
v -0.2 2.2 5.2
v -0.2 2.3 5.2
v -0.0999999 1.2 5.2
v -0.0999999 1.3 5.2
v -0.0999999 1.4 5.2
v -0.0999999 1.5 5.2
v 0 1 5.2
v 0 1.2 5.2
v 0 1.6 5.2
v 0.1 1 5.2
v 0.1 1.2 5.2
v 0.1 1.7 5.2
v 0.1 1.8 5.2
v 0.1 2.2 5.2
v 0.1 2.3 5.2
v 0.2 1.5 5.2
v 0.2 1.6 5.2
v 0.2 1.8 5.2
v 0.2 2.2 5.2
v 0.3 1.7 5.2
v 0.3 2.3 5.2
v 0.4 1 5.2
v 0.4 1.5 5.2
v 0.4 1.7 5.2
v 0.4 2.1 5.2
v 0.4 2.2 5.2
v 0.4 2.3 5.2
v 0.5 1 5.2
v 0.5 1.5 5.2
v 0.5 2 5.2
v 0.5 2.1 5.2
v 0.5 2.2 5.2
v 0.6 2 5.2
v 0.6 2.1 5.2
v 0.6 2.2 5.2
v 0.7 1.5 5.2
v 0.7 1.6 5.2
v 0.7 1.7 5.2
v 0.7 2.1 5.2
v 0.7 2.2 5.2
v 0.7 2.3 5.2
v 0.8 1 5.2
v 0.8 1.6 5.2
v 0.8 1.7 5.2
v 0.8 2.3 5.2
v 0.9 1 5.2
v 0.9 1.4 5.2
v 0.9 1.5 5.2
v 0.9 1.6 5.2
v 1 1.3 5.2
v 1 1.4 5.2
v 1 1.5 5.2
v 1.1 1.3 5.2
v 1.1 1.4 5.2
v 1.1 1.5 5.2
v 1.2 1 5.2
v 1.2 1.4 5.2
v 1.2 1.5 5.2
v 1.2 1.6 5.2
v 1.3 1 5.2
v 1.3 1.6 5.2
v 1.4 1 5.2
v 1.4 1.6 5.2
v 1.5 1.1 5.2
v 1.5 1.2 5.2
v 1.5 1.3 5.2
v 1.5 1.5 5.2
v 1.6 1 5.2
v 1.6 1.1 5.2
v 1.6 1.2 5.2
v 1.6 1.3 5.2
v 1.6 1.5 5.2
v 1.6 1.6 5.2
v 1.7 1 5.2
v 1.7 1.6 5.2
v 1.8 1 5.2
v 1.8 1.4 5.2
v 1.8 1.5 5.2
v 1.8 1.6 5.2
v 1.9 1.2 5.2
v 1.9 1.4 5.2
v 1.9 1.5 5.2
v 2 1 5.2
v 2 1.2 5.2
v 2 1.4 5.2
v 2.1 1.2 5.2
v 2.1 1.6 5.2
v 2.2 1 5.2
v 2.2 1.6 5.2
v 2.3 1.5 5.2
v 2.3 1.6 5.2
v 2.4 1 5.2
v 2.4 1.5 5.2
v 2.5 1 5.2
v 2.5 1.5 5.2
v 2.6 1.5 5.2
v 2.6 1.6 5.2
v 2.7 1 5.2
v 2.7 1.1 5.2
v 2.7 1.2 5.2
v 2.7 1.6 5.2
v 2.8 1.3 5.2
v 2.8 1.5 5.2
v 2.9 1.1 5.2
v 2.9 1.2 5.2
v 3 1 5.2
v 3 1.3 5.2
v 3 1.5 5.2
v 3 1.6 5.2
v 3.1 0 5.2
v 3.1 2.5 5.2
v -3.2 11.4 -3.7
v -3.2 12.6 -3.7
v 3.1 11.4 -3.7
v 3.1 12.6 -3.7
v -3.2 0 -6.3
v -3.2 12.6 -6.3
v 3.1 0 -6.3
v 3.1 12.6 -6.3
v -3.2 0 5.2
v 3.1 0 5.2
v -3.2 0 -6.3
v 3.1 0 -6.3
v -3.2 2.5 6.3
v 3.1 2.5 6.3
v -3.2 2.5 6.2
v 3.1 2.5 6.2
v -3.2 2.5 5.2
v 3.1 2.5 5.2
v -3.2 3.9 6.3
v 3.1 3.9 6.3
v -3.2 3.9 6.2
v 3.1 3.9 6.2
v -3.2 3.9 5.8
v 3.1 3.9 5.8
v -3.2 5.3 6.3
v 3.1 5.3 6.3
v -3.2 5.3 6.2
v 3.1 5.3 6.2
v -3.2 5.3 5.8
v 3.1 5.3 5.8
v -3.2 6.7 6.3
v 3.1 6.7 6.3
v -3.2 6.7 6.2
v 3.1 6.7 6.2
v -3.2 6.7 5.9
v 3.1 6.7 5.9
v -3.2 8.3 6.3
v 3.1 8.3 6.3
v -3.2 8.3 6.2
v 3.1 8.3 6.2
v -3.2 8.3 5.9
v 3.1 8.3 5.9
v -3.2 9.6 6.3
v 3.1 9.6 6.3
v -3.2 9.6 6.2
v 3.1 9.6 6.2
v -3.2 9.6 5.9
v 3.1 9.6 5.9
v -3.2 11.2 6.3
v 3.1 11.2 6.3
v -3.2 11.2 6.2
v 3.1 11.2 6.2
v -3.2 11.2 5.8
v 3.1 11.2 5.8
v -3.2 2.6 6.3
v 3.1 2.6 6.3
v -3.2 2.6 6.2
v 3.1 2.6 6.2
v -3.2 2.6 5.8
v 3.1 2.6 5.8
v -3.2 4.1 6.3
v 3.1 4.1 6.3
v -3.2 4.1 6.2
v 3.1 4.1 6.2
v -3.2 4.1 5.8
v 3.1 4.1 5.8
v -3.2 5.5 6.3
v 3.1 5.5 6.3
v -3.2 5.5 6.2
v 3.1 5.5 6.2
v -3.2 5.5 5.9
v 3.1 5.5 5.9
v -3.2 6.9 6.3
v 3.1 6.9 6.3
v -3.2 6.9 6.2
v 3.1 6.9 6.2
v -3.2 6.9 5.9
v 3.1 6.9 5.9
v -3.2 8.5 6.3
v 3.1 8.5 6.3
v -3.2 8.5 6.2
v 3.1 8.5 6.2
v -3.2 8.5 5.9
v 3.1 8.5 5.9
v -3.2 9.7 6.3
v 3.1 9.7 6.3
v -3.2 9.7 6.2
v 3.1 9.7 6.2
v -3.2 9.7 5.8
v 3.1 9.7 5.8
v -3.2 11.4 6.3
v 3.1 11.4 6.3
v -3.2 11.4 6.2
v 3.1 11.4 6.2
v -3.2 11.4 -3.7
v 3.1 11.4 -3.7
v -3.2 12.6 -3.7
v 3.1 12.6 -3.7
v -3.2 12.6 -6.3
v 3.1 12.6 -6.3

# faces
f 5/2/1 2/2/1 1/2/1
f 6/3/1 4/3/1 3/3/1
f 7/2/1 5/2/1 4/2/1
f 7/3/1 4/3/1 6/3/1
f 8/2/1 5/2/1 7/2/1
f 11/2/1 5/2/1 8/2/1
f 12/3/1 10/3/1 9/3/1
f 13/2/1 11/2/1 10/2/1
f 13/3/1 10/3/1 12/3/1
f 14/2/1 5/2/1 11/2/1
f 14/2/1 11/2/1 13/2/1
f 17/2/1 5/2/1 14/2/1
f 18/3/1 16/3/1 15/3/1
f 19/2/1 17/2/1 16/2/1
f 19/3/1 16/3/1 18/3/1
f 20/2/1 17/2/1 19/2/1
f 23/2/1 17/2/1 20/2/1
f 24/3/1 22/3/1 21/3/1
f 25/2/1 23/2/1 22/2/1
f 25/3/1 22/3/1 24/3/1
f 26/2/1 17/2/1 23/2/1
f 26/2/1 23/2/1 25/2/1
f 29/2/1 17/2/1 26/2/1
f 30/3/1 28/3/1 27/3/1
f 31/2/1 29/2/1 28/2/1
f 31/3/1 28/3/1 30/3/1
f 32/2/1 17/2/1 29/2/1
f 32/2/1 29/2/1 31/2/1
f 35/2/1 17/2/1 32/2/1
f 36/3/1 34/3/1 33/3/1
f 37/2/1 35/2/1 34/2/1
f 37/3/1 34/3/1 36/3/1
f 38/2/1 5/2/1 17/2/1
f 38/2/1 35/2/1 37/2/1
f 38/2/1 17/2/1 35/2/1
f 41/2/1 5/2/1 38/2/1
f 42/3/1 40/3/1 39/3/1
f 43/2/1 41/2/1 40/2/1
f 43/3/1 40/3/1 42/3/1
f 44/2/1 2/2/1 5/2/1
f 44/2/1 41/2/1 43/2/1
f 44/2/1 5/2/1 41/2/1
f 45/2/1 2/2/1 44/2/1
f 46/2/1 2/2/1 45/2/1
f 47/2/2 48/2/2 51/2/2
f 49/3/2 50/3/2 52/3/2
f 50/2/2 51/2/2 53/2/2
f 52/3/2 50/3/2 53/3/2
f 53/2/2 51/2/2 54/2/2
f 54/2/2 51/2/2 57/2/2
f 55/3/2 56/3/2 58/3/2
f 56/2/2 57/2/2 59/2/2
f 58/3/2 56/3/2 59/3/2
f 57/2/2 51/2/2 60/2/2
f 59/2/2 57/2/2 60/2/2
f 60/2/2 51/2/2 63/2/2
f 61/3/2 62/3/2 64/3/2
f 62/2/2 63/2/2 65/2/2
f 64/3/2 62/3/2 65/3/2
f 65/2/2 63/2/2 66/2/2
f 66/2/2 63/2/2 69/2/2
f 67/3/2 68/3/2 70/3/2
f 68/2/2 69/2/2 71/2/2
f 70/3/2 68/3/2 71/3/2
f 69/2/2 63/2/2 72/2/2
f 71/2/2 69/2/2 72/2/2
f 72/2/2 63/2/2 75/2/2
f 73/3/2 74/3/2 76/3/2
f 74/2/2 75/2/2 77/2/2
f 76/3/2 74/3/2 77/3/2
f 75/2/2 63/2/2 78/2/2
f 77/2/2 75/2/2 78/2/2
f 78/2/2 63/2/2 81/2/2
f 79/3/2 80/3/2 82/3/2
f 80/2/2 81/2/2 83/2/2
f 82/3/2 80/3/2 83/3/2
f 63/2/2 51/2/2 84/2/2
f 83/2/2 81/2/2 84/2/2
f 81/2/2 63/2/2 84/2/2
f 84/2/2 51/2/2 87/2/2
f 85/3/2 86/3/2 88/3/2
f 86/2/2 87/2/2 89/2/2
f 88/3/2 86/3/2 89/3/2
f 51/2/2 48/2/2 90/2/2
f 89/2/2 87/2/2 90/2/2
f 87/2/2 51/2/2 90/2/2
f 90/2/2 48/2/2 91/2/2
f 91/2/2 48/2/2 92/2/2
f 107/3/3 94/3/3 93/3/3
f 108/3/3 94/3/3 107/3/3
f 109/3/3 96/3/3 95/3/3
f 110/3/3 96/3/3 109/3/3
f 111/3/3 98/3/3 97/3/3
f 112/3/3 98/3/3 111/3/3
f 113/3/3 100/3/3 99/3/3
f 114/3/3 100/3/3 113/3/3
f 115/3/3 102/3/3 101/3/3
f 116/3/3 102/3/3 115/3/3
f 117/3/3 104/3/3 103/3/3
f 118/3/3 104/3/3 117/3/3
f 119/3/3 106/3/3 105/3/3
f 120/3/3 106/3/3 119/3/3
f 127/2/3 122/2/3 121/2/3
f 128/2/3 122/2/3 127/2/3
f 129/2/3 124/2/3 123/2/3
f 130/2/3 124/2/3 129/2/3
f 131/2/3 126/2/3 125/2/3
f 132/2/3 126/2/3 131/2/3
f 139/2/3 134/2/3 133/2/3
f 140/2/3 134/2/3 139/2/3
f 141/2/3 136/2/3 135/2/3
f 142/2/3 136/2/3 141/2/3
f 143/2/3 138/2/3 137/2/3
f 144/2/3 138/2/3 143/2/3
f 147/2/3 146/2/3 145/2/3
f 148/2/3 146/2/3 147/2/3
f 149/2/3 147/2/3 145/2/3
f 149/1/3 148/1/3 147/1/3
f 150/1/3 148/1/3 149/1/3
f 151/1/3 148/1/3 150/1/3
f 152/1/3 148/1/3 151/1/3
f 153/2/3 150/2/3 149/2/3
f 154/1/3 151/1/3 150/1/3
f 154/2/3 150/2/3 153/2/3
f 155/1/3 151/1/3 154/1/3
f 156/2/3 149/2/3 145/2/3
f 156/2/3 153/2/3 149/2/3
f 157/1/3 154/1/3 153/1/3
f 157/2/3 153/2/3 156/2/3
f 158/2/3 155/2/3 154/2/3
f 158/1/3 154/1/3 157/1/3
f 159/1/3 151/1/3 155/1/3
f 159/2/3 152/2/3 151/2/3
f 160/1/3 148/1/3 152/1/3
f 160/2/3 152/2/3 159/2/3
f 161/2/3 156/2/3 145/2/3
f 162/2/3 156/2/3 161/2/3
f 163/1/3 157/1/3 156/1/3
f 163/2/3 156/2/3 162/2/3
f 164/2/3 158/2/3 157/2/3
f 164/1/3 157/1/3 163/1/3
f 165/2/3 155/2/3 158/2/3
f 165/2/3 158/2/3 164/2/3
f 165/1/3 159/1/3 155/1/3
f 165/1/3 160/1/3 159/1/3
f 166/2/3 146/2/3 148/2/3
f 166/1/3 160/1/3 165/1/3
f 166/1/3 148/1/3 160/1/3
f 167/2/3 161/2/3 145/2/3
f 167/1/3 162/1/3 161/1/3
f 168/1/3 162/1/3 167/1/3
f 169/2/3 165/2/3 164/2/3
f 169/1/3 162/1/3 168/1/3
f 169/2/3 164/2/3 163/2/3
f 169/2/3 166/2/3 165/2/3
f 169/2/3 163/2/3 162/2/3
f 170/2/3 166/2/3 169/2/3
f 171/2/3 166/2/3 170/2/3
f 172/2/3 166/2/3 171/2/3
f 173/1/3 169/1/3 168/1/3
f 173/1/3 170/1/3 169/1/3
f 174/2/3 171/2/3 170/2/3
f 174/1/3 170/1/3 173/1/3
f 175/2/3 171/2/3 174/2/3
f 176/1/3 172/1/3 171/1/3
f 176/2/3 171/2/3 175/2/3
f 177/2/3 166/2/3 172/2/3
f 177/1/3 172/1/3 176/1/3
f 178/2/3 146/2/3 166/2/3
f 178/2/3 166/2/3 177/2/3
f 179/2/3 177/2/3 176/2/3
f 179/2/3 176/2/3 175/2/3
f 179/1/3 178/1/3 177/1/3
f 180/1/3 178/1/3 179/1/3
f 181/1/3 178/1/3 180/1/3
f 182/1/3 178/1/3 181/1/3
f 183/2/3 174/2/3 173/2/3
f 183/1/3 173/1/3 168/1/3
f 184/1/3 175/1/3 174/1/3
f 184/2/3 174/2/3 183/2/3
f 185/2/3 179/2/3 175/2/3
f 185/1/3 175/1/3 184/1/3
f 185/2/3 180/2/3 179/2/3
f 186/2/3 180/2/3 185/2/3
f 187/1/3 181/1/3 180/1/3
f 187/2/3 180/2/3 186/2/3
f 188/2/3 182/2/3 181/2/3
f 188/1/3 181/1/3 187/1/3
f 189/1/3 178/1/3 182/1/3
f 189/2/3 182/2/3 188/2/3
f 190/2/3 168/2/3 167/2/3
f 190/2/3 167/2/3 145/2/3
f 191/1/3 183/1/3 168/1/3
f 191/2/3 168/2/3 190/2/3
f 191/1/3 184/1/3 183/1/3
f 192/1/3 184/1/3 191/1/3
f 193/2/3 185/2/3 184/2/3
f 193/1/3 184/1/3 192/1/3
f 193/2/3 186/2/3 185/2/3
f 194/2/3 186/2/3 193/2/3
f 195/1/3 189/1/3 188/1/3
f 195/2/3 186/2/3 194/2/3
f 195/1/3 188/1/3 187/1/3
f 195/1/3 187/1/3 186/1/3
f 196/1/3 178/1/3 189/1/3
f 196/1/3 189/1/3 195/1/3
f 196/2/3 146/2/3 178/2/3
f 197/1/3 192/1/3 191/1/3
f 197/2/3 190/2/3 145/2/3
f 197/1/3 191/1/3 190/1/3
f 198/2/3 194/2/3 193/2/3
f 198/1/3 192/1/3 197/1/3
f 198/2/3 193/2/3 192/2/3
f 199/1/3 195/1/3 194/1/3
f 199/2/3 194/2/3 198/2/3
f 200/2/3 196/2/3 195/2/3
f 200/1/3 195/1/3 199/1/3
f 201/2/3 198/2/3 197/2/3
f 201/2/3 197/2/3 145/2/3
f 201/2/3 200/2/3 199/2/3
f 201/2/3 199/2/3 198/2/3
f 202/2/3 200/2/3 201/2/3
f 203/2/3 200/2/3 202/2/3
f 204/2/3 196/2/3 200/2/3
f 204/2/3 200/2/3 203/2/3
f 204/2/3 146/2/3 196/2/3
f 205/1/3 202/1/3 201/1/3
f 205/2/3 201/2/3 145/2/3
f 206/1/3 202/1/3 205/1/3
f 207/1/3 202/1/3 206/1/3
f 208/1/3 202/1/3 207/1/3
f 209/2/3 203/2/3 202/2/3
f 209/1/3 204/1/3 203/1/3
f 210/1/3 204/1/3 209/1/3
f 211/1/3 204/1/3 210/1/3
f 212/2/3 146/2/3 204/2/3
f 212/1/3 204/1/3 211/1/3
f 213/2/3 208/2/3 207/2/3
f 213/1/3 207/1/3 206/1/3
f 214/1/3 202/1/3 208/1/3
f 214/2/3 208/2/3 213/2/3
f 215/2/3 210/2/3 209/2/3
f 216/1/3 211/1/3 210/1/3
f 216/2/3 210/2/3 215/2/3
f 217/2/3 212/2/3 211/2/3
f 217/1/3 211/1/3 216/1/3
f 218/2/3 205/2/3 145/2/3
f 218/2/3 206/2/3 205/2/3
f 219/2/3 206/2/3 218/2/3
f 220/1/3 213/1/3 206/1/3
f 220/2/3 206/2/3 219/2/3
f 220/1/3 214/1/3 213/1/3
f 221/2/3 215/2/3 209/2/3
f 221/1/3 214/1/3 220/1/3
f 221/2/3 209/2/3 202/2/3
f 221/1/3 202/1/3 214/1/3
f 222/2/3 215/2/3 221/2/3
f 223/1/3 216/1/3 215/1/3
f 223/2/3 215/2/3 222/2/3
f 224/2/3 217/2/3 216/2/3
f 224/1/3 216/1/3 223/1/3
f 225/1/3 219/1/3 218/1/3
f 225/2/3 218/2/3 145/2/3
f 226/2/3 220/2/3 219/2/3
f 226/1/3 219/1/3 225/1/3
f 226/2/3 222/2/3 221/2/3
f 226/2/3 221/2/3 220/2/3
f 227/2/3 222/2/3 226/2/3
f 228/1/3 223/1/3 222/1/3
f 228/2/3 224/2/3 223/2/3
f 229/2/3 217/2/3 224/2/3
f 229/2/3 224/2/3 228/2/3
f 229/2/3 146/2/3 212/2/3
f 229/2/3 212/2/3 217/2/3
f 230/1/3 227/1/3 226/1/3
f 231/2/3 222/2/3 227/2/3
f 231/1/3 227/1/3 230/1/3
f 232/2/3 222/2/3 231/2/3
f 233/1/3 228/1/3 222/1/3
f 233/2/3 222/2/3 232/2/3
f 233/1/3 229/1/3 228/1/3
f 234/2/3 146/2/3 229/2/3
f 234/1/3 229/1/3 233/1/3
f 235/1/3 232/1/3 231/1/3
f 235/2/3 231/2/3 230/2/3
f 236/1/3 232/1/3 235/1/3
f 237/2/3 233/2/3 232/2/3
f 237/2/3 234/2/3 233/2/3
f 238/2/3 146/2/3 234/2/3
f 238/2/3 234/2/3 237/2/3
f 239/2/3 236/2/3 235/2/3
f 239/2/3 235/2/3 230/2/3
f 240/1/3 232/1/3 236/1/3
f 240/2/3 236/2/3 239/2/3
f 241/1/3 238/1/3 237/1/3
f 242/1/3 238/1/3 241/1/3
f 243/2/3 239/2/3 230/2/3
f 243/1/3 230/1/3 226/1/3
f 244/1/3 240/1/3 239/1/3
f 244/2/3 239/2/3 243/2/3
f 245/2/3 237/2/3 232/2/3
f 245/1/3 240/1/3 244/1/3
f 245/1/3 232/1/3 240/1/3
f 246/2/3 225/2/3 145/2/3
f 246/2/3 226/2/3 225/2/3
f 247/1/3 244/1/3 243/1/3
f 247/2/3 226/2/3 246/2/3
f 247/1/3 243/1/3 226/1/3
f 248/2/3 245/2/3 244/2/3
f 248/1/3 244/1/3 247/1/3
f 249/2/3 237/2/3 245/2/3
f 249/2/3 245/2/3 248/2/3
f 249/1/3 241/1/3 237/1/3
f 250/2/3 242/2/3 241/2/3
f 250/1/3 241/1/3 249/1/3
f 251/1/3 238/1/3 242/1/3
f 251/2/3 242/2/3 250/2/3
f 252/2/3 146/2/3 238/2/3
f 252/1/3 238/1/3 251/1/3
f 253/2/3 246/2/3 145/2/3
f 253/1/3 247/1/3 246/1/3
f 254/2/3 248/2/3 247/2/3
f 254/1/3 247/1/3 253/1/3
f 254/2/3 250/2/3 249/2/3
f 254/2/3 249/2/3 248/2/3
f 255/1/3 251/1/3 250/1/3
f 255/2/3 250/2/3 254/2/3
f 256/2/3 252/2/3 251/2/3
f 256/1/3 251/1/3 255/1/3
f 257/2/3 253/2/3 145/2/3
f 257/2/3 255/2/3 254/2/3
f 257/2/3 256/2/3 255/2/3
f 257/2/3 254/2/3 253/2/3
f 258/2/3 256/2/3 257/2/3
f 259/2/3 256/2/3 258/2/3
f 260/2/3 252/2/3 256/2/3
f 260/2/3 256/2/3 259/2/3
f 261/2/3 257/2/3 145/2/3
f 261/1/3 258/1/3 257/1/3
f 262/1/3 258/1/3 261/1/3
f 263/1/3 258/1/3 262/1/3
f 264/1/3 258/1/3 263/1/3
f 265/2/3 259/2/3 258/2/3
f 266/1/3 260/1/3 259/1/3
f 266/2/3 259/2/3 265/2/3
f 267/2/3 252/2/3 260/2/3
f 267/1/3 260/1/3 266/1/3
f 268/2/3 146/2/3 252/2/3
f 268/2/3 252/2/3 267/2/3
f 269/2/3 262/2/3 261/2/3
f 270/1/3 263/1/3 262/1/3
f 270/2/3 262/2/3 269/2/3
f 271/2/3 264/2/3 263/2/3
f 271/1/3 263/1/3 270/1/3
f 272/1/3 258/1/3 264/1/3
f 272/2/3 264/2/3 271/2/3
f 273/2/3 261/2/3 145/2/3
f 273/2/3 269/2/3 261/2/3
f 274/1/3 271/1/3 270/1/3
f 274/2/3 269/2/3 273/2/3
f 274/1/3 272/1/3 271/1/3
f 274/1/3 270/1/3 269/1/3
f 275/2/3 265/2/3 258/2/3
f 275/1/3 272/1/3 274/1/3
f 275/1/3 258/1/3 272/1/3
f 276/2/3 273/2/3 145/2/3
f 276/1/3 274/1/3 273/1/3
f 277/2/3 275/2/3 274/2/3
f 277/1/3 274/1/3 276/1/3
f 278/2/3 265/2/3 275/2/3
f 278/2/3 275/2/3 277/2/3
f 278/1/3 266/1/3 265/1/3
f 279/2/3 267/2/3 266/2/3
f 279/1/3 266/1/3 278/1/3
f 280/1/3 268/1/3 267/1/3
f 280/2/3 267/2/3 279/2/3
f 281/2/3 146/2/3 268/2/3
f 281/1/3 268/1/3 280/1/3
f 282/2/3 278/2/3 277/2/3
f 282/2/3 277/2/3 276/2/3
f 282/2/3 279/2/3 278/2/3
f 283/2/3 279/2/3 282/2/3
f 284/1/3 280/1/3 279/1/3
f 284/2/3 279/2/3 283/2/3
f 285/2/3 281/2/3 280/2/3
f 285/1/3 280/1/3 284/1/3
f 286/2/3 284/2/3 283/2/3
f 286/2/3 285/2/3 284/2/3
f 287/2/3 146/2/3 281/2/3
f 287/2/3 285/2/3 286/2/3
f 287/2/3 281/2/3 285/2/3
f 288/2/3 282/2/3 276/2/3
f 288/2/3 276/2/3 145/2/3
f 289/1/3 283/1/3 282/1/3
f 289/2/3 282/2/3 288/2/3
f 290/2/3 286/2/3 283/2/3
f 290/1/3 287/1/3 286/1/3
f 291/1/3 287/1/3 290/1/3
f 292/1/3 287/1/3 291/1/3
f 293/2/3 146/2/3 287/2/3
f 293/1/3 287/1/3 292/1/3
f 294/2/3 288/2/3 145/2/3
f 294/1/3 289/1/3 288/1/3
f 295/1/3 283/1/3 289/1/3
f 295/1/3 289/1/3 294/1/3
f 296/2/3 291/2/3 290/2/3
f 297/1/3 292/1/3 291/1/3
f 297/2/3 291/2/3 296/2/3
f 298/2/3 293/2/3 292/2/3
f 298/1/3 292/1/3 297/1/3
f 299/2/3 296/2/3 290/2/3
f 299/1/3 297/1/3 296/1/3
f 300/2/3 298/2/3 297/2/3
f 300/1/3 297/1/3 299/1/3
f 301/2/3 293/2/3 298/2/3
f 301/2/3 298/2/3 300/2/3
f 302/1/3 283/1/3 295/1/3
f 302/2/3 295/2/3 294/2/3
f 303/2/3 300/2/3 299/2/3
f 303/1/3 283/1/3 302/1/3
f 303/2/3 299/2/3 290/2/3
f 303/2/3 290/2/3 283/2/3
f 304/2/3 300/2/3 303/2/3
f 305/1/3 301/1/3 300/1/3
f 305/2/3 300/2/3 304/2/3
f 306/2/3 293/2/3 301/2/3
f 306/1/3 301/1/3 305/1/3
f 307/2/3 146/2/3 293/2/3
f 307/2/3 293/2/3 306/2/3
f 308/2/3 294/2/3 145/2/3
f 308/2/3 302/2/3 294/2/3
f 308/2/3 304/2/3 303/2/3
f 308/2/3 303/2/3 302/2/3
f 309/2/3 304/2/3 308/2/3
f 310/1/3 307/1/3 306/1/3
f 310/2/3 304/2/3 309/2/3
f 310/1/3 306/1/3 305/1/3
f 310/1/3 305/1/3 304/1/3
f 311/2/3 146/2/3 307/2/3
f 311/1/3 307/1/3 310/1/3
f 312/1/3 309/1/3 308/1/3
f 312/2/3 308/2/3 145/2/3
f 313/1/3 309/1/3 312/1/3
f 314/1/3 309/1/3 313/1/3
f 315/2/3 310/2/3 309/2/3
f 315/1/3 309/1/3 314/1/3
f 315/2/3 311/2/3 310/2/3
f 316/2/3 313/2/3 312/2/3
f 317/1/3 314/1/3 313/1/3
f 317/2/3 313/2/3 316/2/3
f 318/2/3 315/2/3 314/2/3
f 318/1/3 314/1/3 317/1/3
f 319/2/3 316/2/3 312/2/3
f 319/1/3 317/1/3 316/1/3
f 320/2/3 318/2/3 317/2/3
f 320/1/3 317/1/3 319/1/3
f 321/2/3 315/2/3 318/2/3
f 321/2/3 318/2/3 320/2/3
f 322/2/3 320/2/3 319/2/3
f 322/2/3 312/2/3 145/2/3
f 322/2/3 319/2/3 312/2/3
f 323/1/3 321/1/3 320/1/3
f 323/2/3 320/2/3 322/2/3
f 324/2/3 315/2/3 321/2/3
f 324/1/3 321/1/3 323/1/3
f 325/2/3 311/2/3 315/2/3
f 325/2/3 315/2/3 324/2/3
f 326/1/3 323/1/3 322/1/3
f 326/1/3 324/1/3 323/1/3
f 326/1/3 325/1/3 324/1/3
f 326/2/3 322/2/3 145/2/3
f 327/2/3 311/2/3 325/2/3
f 327/1/3 325/1/3 326/1/3
f 328/2/3 326/2/3 145/2/3
f 328/2/3 327/2/3 326/2/3
f 329/2/3 311/2/3 327/2/3
f 329/2/3 327/2/3 328/2/3
f 330/1/3 329/1/3 328/1/3
f 331/1/3 329/1/3 330/1/3
f 332/1/3 329/1/3 331/1/3
f 333/1/3 329/1/3 332/1/3
f 334/2/3 328/2/3 145/2/3
f 334/1/3 330/1/3 328/1/3
f 335/2/3 331/2/3 330/2/3
f 335/1/3 330/1/3 334/1/3
f 336/1/3 332/1/3 331/1/3
f 336/2/3 331/2/3 335/2/3
f 337/2/3 333/2/3 332/2/3
f 337/1/3 332/1/3 336/1/3
f 338/1/3 329/1/3 333/1/3
f 338/2/3 333/2/3 337/2/3
f 339/2/3 311/2/3 329/2/3
f 339/1/3 329/1/3 338/1/3
f 340/2/3 337/2/3 336/2/3
f 340/2/3 338/2/3 337/2/3
f 340/2/3 339/2/3 338/2/3
f 340/2/3 335/2/3 334/2/3
f 340/2/3 334/2/3 145/2/3
f 340/2/3 336/2/3 335/2/3
f 341/2/3 311/2/3 339/2/3
f 341/2/3 339/2/3 340/2/3
f 342/2/3 340/2/3 145/2/3
f 342/1/3 341/1/3 340/1/3
f 343/1/3 341/1/3 342/1/3
f 344/1/3 341/1/3 343/1/3
f 345/2/3 311/2/3 341/2/3
f 345/1/3 341/1/3 344/1/3
f 346/2/3 343/2/3 342/2/3
f 347/1/3 344/1/3 343/1/3
f 347/2/3 343/2/3 346/2/3
f 348/2/3 345/2/3 344/2/3
f 348/1/3 344/1/3 347/1/3
f 349/2/3 346/2/3 342/2/3
f 349/2/3 342/2/3 145/2/3
f 350/1/3 347/1/3 346/1/3
f 350/2/3 346/2/3 349/2/3
f 351/2/3 348/2/3 347/2/3
f 351/1/3 347/1/3 350/1/3
f 352/1/3 350/1/3 349/1/3
f 352/2/3 351/2/3 350/2/3
f 353/2/3 345/2/3 348/2/3
f 353/2/3 351/2/3 352/2/3
f 353/2/3 348/2/3 351/2/3
f 353/2/3 311/2/3 345/2/3
f 354/1/3 352/1/3 349/1/3
f 354/2/3 349/2/3 145/2/3
f 354/1/3 353/1/3 352/1/3
f 355/2/3 311/2/3 353/2/3
f 355/1/3 353/1/3 354/1/3
f 356/2/3 355/2/3 354/2/3
f 357/2/3 311/2/3 355/2/3
f 357/2/3 355/2/3 356/2/3
f 358/2/3 354/2/3 145/2/3
f 358/2/3 356/2/3 354/2/3
f 359/1/3 357/1/3 356/1/3
f 359/2/3 356/2/3 358/2/3
f 360/2/3 358/2/3 145/2/3
f 360/1/3 359/1/3 358/1/3
f 361/1/3 357/1/3 359/1/3
f 361/1/3 359/1/3 360/1/3
f 362/2/3 361/2/3 360/2/3
f 362/1/3 357/1/3 361/1/3
f 363/2/3 311/2/3 357/2/3
f 363/1/3 357/1/3 362/1/3
f 364/2/3 362/2/3 360/2/3
f 364/2/3 360/2/3 145/2/3
f 364/2/3 363/2/3 362/2/3
f 365/2/3 363/2/3 364/2/3
f 366/2/3 363/2/3 365/2/3
f 367/2/3 311/2/3 363/2/3
f 367/2/3 363/2/3 366/2/3
f 368/1/3 367/1/3 366/1/3
f 369/1/3 367/1/3 368/1/3
f 370/2/3 366/2/3 365/2/3
f 370/1/3 365/1/3 364/1/3
f 371/1/3 368/1/3 366/1/3
f 371/2/3 366/2/3 370/2/3
f 372/2/3 364/2/3 145/2/3
f 372/1/3 370/1/3 364/1/3
f 372/1/3 371/1/3 370/1/3
f 373/1/3 368/1/3 371/1/3
f 373/1/3 371/1/3 372/1/3
f 373/2/3 369/2/3 368/2/3
f 374/1/3 367/1/3 369/1/3
f 374/2/3 369/2/3 373/2/3
f 375/2/3 311/2/3 367/2/3
f 375/1/3 367/1/3 374/1/3
f 376/2/3 373/2/3 372/2/3
f 376/2/3 372/2/3 145/2/3
f 376/2/3 375/2/3 374/2/3
f 376/2/3 374/2/3 373/2/3
f 377/2/3 311/2/3 375/2/3
f 377/2/3 375/2/3 376/2/3
f 377/2/3 146/2/3 311/2/3
f 380/2/3 379/2/3 378/2/3
f 381/2/3 379/2/3 380/2/3
f 382/2/4 383/2/4 384/2/4
f 384/2/4 383/2/4 385/2/4
f 388/2/5 387/2/5 386/2/5
f 389/2/5 387/2/5 388/2/5
f 392/3/5 391/3/5 390/3/5
f 393/3/5 391/3/5 392/3/5
f 394/2/5 393/2/5 392/2/5
f 395/2/5 393/2/5 394/2/5
f 398/3/5 397/3/5 396/3/5
f 399/3/5 397/3/5 398/3/5
f 400/2/5 399/2/5 398/2/5
f 401/2/5 399/2/5 400/2/5
f 404/3/5 403/3/5 402/3/5
f 405/3/5 403/3/5 404/3/5
f 406/2/5 405/2/5 404/2/5
f 407/2/5 405/2/5 406/2/5
f 410/3/5 409/3/5 408/3/5
f 411/3/5 409/3/5 410/3/5
f 412/2/5 411/2/5 410/2/5
f 413/2/5 411/2/5 412/2/5
f 416/3/5 415/3/5 414/3/5
f 417/3/5 415/3/5 416/3/5
f 418/2/5 417/2/5 416/2/5
f 419/2/5 417/2/5 418/2/5
f 422/3/5 421/3/5 420/3/5
f 423/3/5 421/3/5 422/3/5
f 424/2/5 423/2/5 422/2/5
f 425/2/5 423/2/5 424/2/5
f 428/3/5 427/3/5 426/3/5
f 429/3/5 427/3/5 428/3/5
f 430/2/5 429/2/5 428/2/5
f 431/2/5 429/2/5 430/2/5
f 432/3/6 433/3/6 434/3/6
f 434/3/6 433/3/6 435/3/6
f 434/2/6 435/2/6 436/2/6
f 436/2/6 435/2/6 437/2/6
f 438/3/6 439/3/6 440/3/6
f 440/3/6 439/3/6 441/3/6
f 440/2/6 441/2/6 442/2/6
f 442/2/6 441/2/6 443/2/6
f 444/3/6 445/3/6 446/3/6
f 446/3/6 445/3/6 447/3/6
f 446/2/6 447/2/6 448/2/6
f 448/2/6 447/2/6 449/2/6
f 450/3/6 451/3/6 452/3/6
f 452/3/6 451/3/6 453/3/6
f 452/2/6 453/2/6 454/2/6
f 454/2/6 453/2/6 455/2/6
f 456/3/6 457/3/6 458/3/6
f 458/3/6 457/3/6 459/3/6
f 458/2/6 459/2/6 460/2/6
f 460/2/6 459/2/6 461/2/6
f 462/3/6 463/3/6 464/3/6
f 464/3/6 463/3/6 465/3/6
f 464/2/6 465/2/6 466/2/6
f 466/2/6 465/2/6 467/2/6
f 468/3/6 469/3/6 470/3/6
f 470/3/6 469/3/6 471/3/6
f 470/2/6 471/2/6 472/2/6
f 472/2/6 471/2/6 473/2/6
f 474/2/6 475/2/6 476/2/6
f 476/2/6 475/2/6 477/2/6
