# MagicaVoxel @ Ephtracy

# group
o 

# material
mtllib ChipsApartment.mtl
usemtl palette

# normals
vn -1 0 0
vn 1 0 0
vn 0 0 1
vn 0 0 -1
vn 0 -1 0
vn 0 1 0

# texcoords
vt 0.0175781 0.5
vt 0.958984 0.5
vt 0.982422 0.5

# verts
v -6.1 0 6.2
v -6.1 0 -6.3
v -6.1 25.5 6.2
v -6.1 25.5 -6.3
v -3 0 0.9
v -3 0 0.8
v -3 0.9 0.9
v -3 0.9 0.8
v -2.8 0 1
v -2.8 0 0.9
v -2.8 0.9 1
v -2.8 0.9 0.9
v -2.8 10.1 6.1
v -2.8 10.1 0.9
v -2.8 10.3 6.1
v -2.8 10.3 0.9
v 3.9 10.1 6.2
v 3.9 10.1 6.1
v 3.9 10.4 6.2
v 3.9 10.4 6.1
v 4.2 0.9 6.2
v 4.2 0.9 6.1
v 4.2 10.1 6.2
v 4.2 10.1 6.1
v 4.3 0 6.2
v 4.3 0 1
v 4.3 0.9 6.2
v 4.3 0.9 6.1
v 4.3 0.9 1
v -4.6 0 6.2
v -4.6 0 0.8
v -4.6 10.1 6.2
v -4.6 10.1 0.8
v -3.3 10.1 6.2
v -3.3 10.1 0.9
v -3.3 10.3 6.2
v -3.3 10.3 0.9
v -3.2 10.3 6.2
v -3.2 10.3 6.1
v -3.2 10.4 6.2
v -3.2 10.4 6.1
v 6 0 6.2
v 6 0 -6.3
v 6 0.9 6.1
v 6 0.9 0.8
v 6 10.1 6.1
v 6 10.1 0.8
v 6 25.5 6.2
v 6 25.5 -6.3
v -6.1 0 6.2
v -6.1 25.5 6.2
v -4.6 0 6.2
v -4.6 10.1 6.2
v -3.8 15.5 6.2
v -3.8 22.6 6.2
v -3.7 11.8 6.2
v -3.7 13.5 6.2
v -3.4 13.5 6.2
v -3.4 14 6.2
v -3.3 10.1 6.2
v -3.3 10.3 6.2
v -3.2 10.3 6.2
v -3.2 10.4 6.2
v -3.2 12.1 6.2
v -3.2 13.5 6.2
v -3.1 13.5 6.2
v -3.1 14 6.2
v -3.1 14.2 6.2
v -2.8 13.1 6.2
v -2.8 13.5 6.2
v -2.7 12.8 6.2
v -2.7 13 6.2
v -2.4 13.1 6.2
v -2.4 13.5 6.2
v -2.3 12.8 6.2
v -2.3 12.9 6.2
v -2.3 13 6.2
v -2.3 13.5 6.2
v -2 12.9 6.2
v -2 13.3 6.2
v -2 13.5 6.2
v -2 14 6.2
v -1.8 12.1 6.2
v -1.8 12.3 6.2
v -1.7 13.5 6.2
v -1.7 14.2 6.2
v -1.4 11.8 6.2
v -1.4 12.3 6.2
v -1.4 12.8 6.2
v -1.3 12.8 6.2
v -1.3 13.3 6.2
v -1.1 12.3 6.2
v -1.1 12.8 6.2
v -0.8 12.8 6.2
v -0.8 13.5 6.2
v -0.6 12.3 6.2
v -0.6 12.6 6.2
v -0.5 12.6 6.2
v -0.5 14.4 6.2
v -0.2 12.6 6.2
v -0.2 13.2 6.2
v -0.2 13.4 6.2
v -0.2 14.4 6.2
v 0 12.3 6.2
v 0 12.6 6.2
v 0.2 12.3 6.2
v 0.2 12.6 6.2
v 0.3 12.6 6.2
v 0.3 13.2 6.2
v 0.4 13.2 6.2
v 0.4 13.4 6.2
v 0.5 12.6 6.2
v 0.5 13.2 6.2
v 0.6 12.3 6.2
v 0.6 12.6 6.2
v 0.9 12.3 6.2
v 0.9 12.6 6.2
v 1 13.7 6.2
v 1 14 6.2
v 1.1 12.6 6.2
v 1.1 13.3 6.2
v 1.3 13.7 6.2
v 1.3 14 6.2
v 1.4 12.6 6.2
v 1.4 13.3 6.2
v 1.6 12.3 6.2
v 1.6 12.6 6.2
v 1.8 11.7 6.2
v 1.8 13.3 6.2
v 2 11.7 6.2
v 2 12.4 6.2
v 2 12.7 6.2
v 2 12.9 6.2
v 2 13.2 6.2
v 2 13.3 6.2
v 2.4 12.7 6.2
v 2.4 12.9 6.2
v 2.6 13 6.2
v 2.6 13.2 6.2
v 2.7 12.4 6.2
v 2.7 13 6.2
v 2.9 13.4 6.2
v 2.9 13.8 6.2
v 3.1 13 6.2
v 3.1 13.4 6.2
v 3.2 13.4 6.2
v 3.2 13.8 6.2
v 3.3 13 6.2
v 3.3 13.4 6.2
v 3.7 12.1 6.2
v 3.7 12.4 6.2
v 3.7 12.6 6.2
v 3.7 13.3 6.2
v 3.8 12.5 6.2
v 3.8 12.6 6.2
v 3.9 10.1 6.2
v 3.9 10.4 6.2
v 4 12.7 6.2
v 4 13 6.2
v 4.2 0.9 6.2
v 4.2 10.1 6.2
v 4.2 12.1 6.2
v 4.2 12.3 6.2
v 4.2 12.4 6.2
v 4.2 12.5 6.2
v 4.3 0 6.2
v 4.3 0.9 6.2
v 4.3 12.6 6.2
v 4.3 12.7 6.2
v 4.4 12.3 6.2
v 4.4 12.6 6.2
v 4.4 13 6.2
v 4.4 13.3 6.2
v 4.5 15.5 6.2
v 4.5 22.6 6.2
v 6 0 6.2
v 6 25.5 6.2
v -3.2 10.3 6.1
v -3.2 10.4 6.1
v -2.8 10.1 6.1
v -2.8 10.3 6.1
v 3.9 10.1 6.1
v 3.9 10.4 6.1
v -2.8 0 1
v -2.8 0.9 1
v 4.3 0 1
v 4.3 0.9 1
v -3.3 10.1 0.9
v -3.3 10.3 0.9
v -3 0 0.9
v -3 0.9 0.9
v -2.8 0 0.9
v -2.8 0.9 0.9
v -2.8 10.1 0.9
v -2.8 10.3 0.9
v -4.6 0 0.8
v -4.6 10.1 0.8
v -3 0 0.8
v -3 0.9 0.8
v 6 0.9 0.8
v 6 10.1 0.8
v 4.2 0.9 6.1
v 4.2 10.1 6.1
v 4.3 0.9 6.1
v 6 0.9 6.1
v 6 10.1 6.1
v -6.1 0 -6.3
v -6.1 25.5 -6.3
v 6 0 -6.3
v 6 25.5 -6.3
v -6.1 0 6.2
v -4.6 0 6.2
v 4.3 0 6.2
v 6 0 6.2
v -2.8 0 1
v 4.3 0 1
v -3 0 0.9
v -2.8 0 0.9
v -4.6 0 0.8
v -3 0 0.8
v -6.1 0 -6.3
v 6 0 -6.3
v 4.2 0.9 6.2
v 4.3 0.9 6.2
v 4.2 0.9 6.1
v 4.3 0.9 6.1
v -4.6 10.1 6.2
v -3.3 10.1 6.2
v 3.9 10.1 6.2
v 4.2 10.1 6.2
v -2.8 10.1 6.1
v 3.9 10.1 6.1
v 4.2 10.1 6.1
v 6 10.1 6.1
v -3.3 10.1 0.9
v -2.8 10.1 0.9
v -4.6 10.1 0.8
v 6 10.1 0.8
v -3.3 10.3 6.2
v -3.2 10.3 6.2
v -3.2 10.3 6.1
v -2.8 10.3 6.1
v -3.3 10.3 0.9
v -2.8 10.3 0.9
v -3.2 10.4 6.2
v 3.9 10.4 6.2
v -3.2 10.4 6.1
v 3.9 10.4 6.1
v 4.3 0.9 6.1
v 6 0.9 6.1
v -2.8 0.9 1
v 4.3 0.9 1
v -3 0.9 0.9
v -2.8 0.9 0.9
v -3 0.9 0.8
v 6 0.9 0.8
v -6.1 25.5 6.2
v 6 25.5 6.2
v -6.1 25.5 -6.3
v 6 25.5 -6.3

# faces
f 3/3/1 2/3/1 1/3/1
f 4/3/1 2/3/1 3/3/1
f 7/3/1 6/3/1 5/3/1
f 8/3/1 6/3/1 7/3/1
f 11/3/1 10/3/1 9/3/1
f 12/3/1 10/3/1 11/3/1
f 15/3/1 14/3/1 13/3/1
f 16/3/1 14/3/1 15/3/1
f 19/3/1 18/3/1 17/3/1
f 20/3/1 18/3/1 19/3/1
f 23/3/1 22/3/1 21/3/1
f 24/3/1 22/3/1 23/3/1
f 27/3/1 26/3/1 25/3/1
f 28/3/1 26/3/1 27/3/1
f 29/3/1 26/3/1 28/3/1
f 30/3/2 31/3/2 32/3/2
f 32/3/2 31/3/2 33/3/2
f 34/3/2 35/3/2 36/3/2
f 36/3/2 35/3/2 37/3/2
f 38/3/2 39/3/2 40/3/2
f 40/3/2 39/3/2 41/3/2
f 42/3/2 43/3/2 44/3/2
f 44/3/2 43/3/2 45/3/2
f 42/3/2 44/3/2 46/3/2
f 45/3/2 43/3/2 47/3/2
f 42/3/2 46/3/2 48/3/2
f 46/3/2 47/3/2 48/3/2
f 47/3/2 43/3/2 49/3/2
f 48/3/2 47/3/2 49/3/2
f 52/3/3 51/3/3 50/3/3
f 53/3/3 51/3/3 52/3/3
f 54/3/3 51/3/3 53/3/3
f 55/3/3 51/3/3 54/3/3
f 56/3/3 54/3/3 53/3/3
f 57/3/3 54/3/3 56/3/3
f 58/1/3 57/1/3 56/1/3
f 58/3/3 54/3/3 57/3/3
f 59/3/3 54/3/3 58/3/3
f 60/3/3 56/3/3 53/3/3
f 61/3/3 56/3/3 60/3/3
f 62/3/3 56/3/3 61/3/3
f 63/3/3 56/3/3 62/3/3
f 64/1/3 58/1/3 56/1/3
f 64/1/3 59/1/3 58/1/3
f 65/1/3 59/1/3 64/1/3
f 66/1/3 59/1/3 65/1/3
f 66/3/3 65/3/3 64/3/3
f 67/3/3 54/3/3 59/3/3
f 67/1/3 59/1/3 66/1/3
f 68/3/3 54/3/3 67/3/3
f 69/3/3 66/3/3 64/3/3
f 69/3/3 67/3/3 66/3/3
f 70/3/3 67/3/3 69/3/3
f 71/3/3 69/3/3 64/3/3
f 72/3/3 69/3/3 71/3/3
f 73/1/3 70/1/3 69/1/3
f 73/3/3 69/3/3 72/3/3
f 74/3/3 67/3/3 70/3/3
f 74/1/3 70/1/3 73/1/3
f 75/1/3 72/1/3 71/1/3
f 75/3/3 71/3/3 64/3/3
f 76/1/3 72/1/3 75/1/3
f 77/3/3 73/3/3 72/3/3
f 77/1/3 72/1/3 76/1/3
f 77/3/3 74/3/3 73/3/3
f 78/3/3 67/3/3 74/3/3
f 78/3/3 74/3/3 77/3/3
f 79/3/3 76/3/3 75/3/3
f 79/1/3 77/1/3 76/1/3
f 79/1/3 78/1/3 77/1/3
f 80/1/3 78/1/3 79/1/3
f 81/3/3 67/3/3 78/3/3
f 81/1/3 78/1/3 80/1/3
f 82/1/3 68/1/3 67/1/3
f 82/3/3 67/3/3 81/3/3
f 83/1/3 64/1/3 56/1/3
f 83/3/3 80/3/3 79/3/3
f 83/3/3 75/3/3 64/3/3
f 83/3/3 79/3/3 75/3/3
f 84/3/3 80/3/3 83/3/3
f 85/1/3 81/1/3 80/1/3
f 85/1/3 82/1/3 81/1/3
f 86/3/3 54/3/3 68/3/3
f 86/1/3 82/1/3 85/1/3
f 86/1/3 68/1/3 82/1/3
f 87/3/3 56/3/3 63/3/3
f 87/1/3 83/1/3 56/1/3
f 87/1/3 84/1/3 83/1/3
f 88/3/3 80/3/3 84/3/3
f 88/1/3 84/1/3 87/1/3
f 89/3/3 80/3/3 88/3/3
f 90/1/3 89/1/3 88/1/3
f 90/3/3 80/3/3 89/3/3
f 91/1/3 85/1/3 80/1/3
f 91/3/3 80/3/3 90/3/3
f 92/1/3 90/1/3 88/1/3
f 92/3/3 88/3/3 87/3/3
f 92/1/3 91/1/3 90/1/3
f 93/1/3 91/1/3 92/1/3
f 94/3/3 93/3/3 92/3/3
f 94/1/3 91/1/3 93/1/3
f 95/1/3 85/1/3 91/1/3
f 95/1/3 91/1/3 94/1/3
f 95/3/3 86/3/3 85/3/3
f 96/3/3 94/3/3 92/3/3
f 96/3/3 92/3/3 87/3/3
f 96/3/3 95/3/3 94/3/3
f 97/3/3 95/3/3 96/3/3
f 98/1/3 97/1/3 96/1/3
f 98/3/3 95/3/3 97/3/3
f 99/3/3 86/3/3 95/3/3
f 99/3/3 95/3/3 98/3/3
f 99/3/3 54/3/3 86/3/3
f 100/1/3 98/1/3 96/1/3
f 100/1/3 99/1/3 98/1/3
f 101/1/3 99/1/3 100/1/3
f 102/1/3 99/1/3 101/1/3
f 103/3/3 54/3/3 99/3/3
f 103/1/3 99/1/3 102/1/3
f 104/3/3 96/3/3 87/3/3
f 104/1/3 100/1/3 96/1/3
f 105/3/3 101/3/3 100/3/3
f 105/1/3 100/1/3 104/1/3
f 106/3/3 104/3/3 87/3/3
f 106/3/3 105/3/3 104/3/3
f 107/3/3 101/3/3 105/3/3
f 107/3/3 105/3/3 106/3/3
f 108/1/3 107/1/3 106/1/3
f 108/3/3 101/3/3 107/3/3
f 109/1/3 102/1/3 101/1/3
f 109/3/3 101/3/3 108/3/3
f 110/1/3 109/1/3 108/1/3
f 110/1/3 102/1/3 109/1/3
f 111/3/3 103/3/3 102/3/3
f 111/1/3 102/1/3 110/1/3
f 112/1/3 108/1/3 106/1/3
f 112/1/3 110/1/3 108/1/3
f 113/3/3 111/3/3 110/3/3
f 113/1/3 110/1/3 112/1/3
f 114/1/3 112/1/3 106/1/3
f 114/3/3 106/3/3 87/3/3
f 115/3/3 113/3/3 112/3/3
f 115/1/3 112/1/3 114/1/3
f 116/3/3 114/3/3 87/3/3
f 116/3/3 115/3/3 114/3/3
f 117/3/3 113/3/3 115/3/3
f 117/3/3 115/3/3 116/3/3
f 118/3/3 103/3/3 111/3/3
f 118/3/3 113/3/3 117/3/3
f 118/3/3 111/3/3 113/3/3
f 119/3/3 103/3/3 118/3/3
f 120/1/3 117/1/3 116/1/3
f 120/3/3 118/3/3 117/3/3
f 121/3/3 118/3/3 120/3/3
f 122/1/3 119/1/3 118/1/3
f 122/3/3 118/3/3 121/3/3
f 123/3/3 103/3/3 119/3/3
f 123/1/3 119/1/3 122/1/3
f 124/1/3 121/1/3 120/1/3
f 124/1/3 120/1/3 116/1/3
f 125/3/3 122/3/3 121/3/3
f 125/1/3 121/1/3 124/1/3
f 125/3/3 123/3/3 122/3/3
f 126/1/3 124/1/3 116/1/3
f 126/3/3 116/3/3 87/3/3
f 127/3/3 125/3/3 124/3/3
f 127/1/3 124/1/3 126/1/3
f 128/3/3 87/3/3 63/3/3
f 128/3/3 126/3/3 87/3/3
f 128/3/3 127/3/3 126/3/3
f 129/3/3 123/3/3 125/3/3
f 129/3/3 127/3/3 128/3/3
f 129/3/3 125/3/3 127/3/3
f 130/3/3 128/3/3 63/3/3
f 130/1/3 129/1/3 128/1/3
f 131/1/3 129/1/3 130/1/3
f 132/1/3 129/1/3 131/1/3
f 133/1/3 129/1/3 132/1/3
f 134/1/3 129/1/3 133/1/3
f 135/3/3 123/3/3 129/3/3
f 135/1/3 129/1/3 134/1/3
f 136/1/3 132/1/3 131/1/3
f 136/3/3 133/3/3 132/3/3
f 137/1/3 134/1/3 133/1/3
f 137/3/3 133/3/3 136/3/3
f 138/1/3 137/1/3 136/1/3
f 138/1/3 134/1/3 137/1/3
f 139/3/3 135/3/3 134/3/3
f 139/1/3 134/1/3 138/1/3
f 140/1/3 136/1/3 131/1/3
f 140/3/3 131/3/3 130/3/3
f 140/1/3 138/1/3 136/1/3
f 141/3/3 139/3/3 138/3/3
f 141/1/3 138/1/3 140/1/3
f 142/3/3 135/3/3 139/3/3
f 142/3/3 139/3/3 141/3/3
f 142/3/3 141/3/3 140/3/3
f 142/3/3 123/3/3 135/3/3
f 143/3/3 123/3/3 142/3/3
f 144/3/3 142/3/3 140/3/3
f 145/1/3 143/1/3 142/1/3
f 145/3/3 142/3/3 144/3/3
f 146/1/3 145/1/3 144/1/3
f 146/1/3 143/1/3 145/1/3
f 147/3/3 123/3/3 143/3/3
f 147/1/3 143/1/3 146/1/3
f 148/1/3 146/1/3 144/1/3
f 148/3/3 144/3/3 140/3/3
f 149/3/3 147/3/3 146/3/3
f 149/1/3 146/1/3 148/1/3
f 150/3/3 140/3/3 130/3/3
f 150/3/3 148/3/3 140/3/3
f 150/3/3 149/3/3 148/3/3
f 151/3/3 149/3/3 150/3/3
f 152/3/3 149/3/3 151/3/3
f 153/3/3 149/3/3 152/3/3
f 154/3/3 152/3/3 151/3/3
f 155/1/3 153/1/3 152/1/3
f 155/3/3 152/3/3 154/3/3
f 157/3/3 130/3/3 63/3/3
f 157/3/3 150/3/3 130/3/3
f 158/1/3 153/1/3 155/1/3
f 158/1/3 155/1/3 154/1/3
f 159/1/3 153/1/3 158/1/3
f 161/3/3 157/3/3 156/3/3
f 162/3/3 150/3/3 157/3/3
f 162/1/3 151/1/3 150/1/3
f 162/3/3 157/3/3 161/3/3
f 163/1/3 151/1/3 162/1/3
f 164/3/3 154/3/3 151/3/3
f 164/1/3 151/1/3 163/1/3
f 165/1/3 158/1/3 154/1/3
f 165/3/3 154/3/3 164/3/3
f 167/3/3 161/3/3 160/3/3
f 167/3/3 163/3/3 162/3/3
f 167/3/3 162/3/3 161/3/3
f 168/1/3 158/1/3 165/1/3
f 168/1/3 165/1/3 164/1/3
f 168/1/3 164/1/3 163/1/3
f 169/3/3 159/3/3 158/3/3
f 169/1/3 158/1/3 168/1/3
f 170/3/3 167/3/3 166/3/3
f 170/3/3 163/3/3 167/3/3
f 170/1/3 168/1/3 163/1/3
f 171/3/3 169/3/3 168/3/3
f 171/1/3 168/1/3 170/1/3
f 172/1/3 153/1/3 159/1/3
f 172/3/3 169/3/3 171/3/3
f 172/3/3 159/3/3 169/3/3
f 173/3/3 149/3/3 153/3/3
f 173/1/3 153/1/3 172/1/3
f 174/2/3 55/2/3 54/2/3
f 174/3/3 149/3/3 173/3/3
f 174/3/3 173/3/3 172/3/3
f 174/3/3 147/3/3 149/3/3
f 174/3/3 54/3/3 103/3/3
f 174/3/3 172/3/3 171/3/3
f 174/3/3 103/3/3 123/3/3
f 174/3/3 171/3/3 170/3/3
f 174/3/3 123/3/3 147/3/3
f 175/3/3 51/3/3 55/3/3
f 175/2/3 55/2/3 174/2/3
f 176/3/3 174/3/3 170/3/3
f 176/3/3 170/3/3 166/3/3
f 176/3/3 175/3/3 174/3/3
f 177/3/3 51/3/3 175/3/3
f 177/3/3 175/3/3 176/3/3
f 181/3/3 179/3/3 178/3/3
f 182/3/3 181/3/3 180/3/3
f 183/3/3 179/3/3 181/3/3
f 183/3/3 181/3/3 182/3/3
f 186/3/3 185/3/3 184/3/3
f 187/3/3 185/3/3 186/3/3
f 192/3/3 191/3/3 190/3/3
f 193/3/3 191/3/3 192/3/3
f 194/3/3 189/3/3 188/3/3
f 195/3/3 189/3/3 194/3/3
f 198/3/3 197/3/3 196/3/3
f 199/3/3 197/3/3 198/3/3
f 200/3/3 197/3/3 199/3/3
f 201/3/3 197/3/3 200/3/3
f 202/3/4 203/3/4 204/3/4
f 204/3/4 203/3/4 205/3/4
f 205/3/4 203/3/4 206/3/4
f 207/3/4 208/3/4 209/3/4
f 209/3/4 208/3/4 210/3/4
f 216/3/5 214/3/5 213/3/5
f 218/3/5 216/3/5 215/3/5
f 219/3/5 212/3/5 211/3/5
f 220/3/5 218/3/5 217/3/5
f 221/3/5 219/3/5 211/3/5
f 221/3/5 220/3/5 219/3/5
f 222/3/5 218/3/5 220/3/5
f 222/3/5 220/3/5 221/3/5
f 222/3/5 214/3/5 216/3/5
f 222/3/5 216/3/5 218/3/5
f 225/3/5 224/3/5 223/3/5
f 226/3/5 224/3/5 225/3/5
f 232/3/5 230/3/5 229/3/5
f 233/3/5 230/3/5 232/3/5
f 235/3/5 228/3/5 227/3/5
f 236/3/5 234/3/5 233/3/5
f 236/3/5 232/3/5 231/3/5
f 236/3/5 233/3/5 232/3/5
f 237/3/5 235/3/5 227/3/5
f 237/3/5 236/3/5 235/3/5
f 238/3/5 234/3/5 236/3/5
f 238/3/5 236/3/5 237/3/5
f 241/3/5 240/3/5 239/3/5
f 243/3/5 241/3/5 239/3/5
f 243/3/5 242/3/5 241/3/5
f 244/3/5 242/3/5 243/3/5
f 247/3/5 246/3/5 245/3/5
f 248/3/5 246/3/5 247/3/5
f 249/3/6 250/3/6 252/3/6
f 251/3/6 252/3/6 254/3/6
f 253/3/6 254/3/6 255/3/6
f 252/3/6 250/3/6 256/3/6
f 255/3/6 254/3/6 256/3/6
f 254/3/6 252/3/6 256/3/6
f 257/3/6 258/3/6 259/3/6
f 259/3/6 258/3/6 260/3/6
