# MagicaVoxel @ Ephtracy

# group
o 

# material
mtllib concrete_barrier.mtl
usemtl palette

# normals
vn -1 0 0
vn 1 0 0
vn 0 0 1
vn 0 0 -1
vn 0 -1 0
vn 0 1 0

# texcoords
vt 0.00976563 0.5
vt 0.0449219 0.5
vt 0.310547 0.5

# verts
v -1 0 0.3
v -1 0 -0.2
v -1 0.1 0.3
v -1 0.1 0.2
v -1 0.1 0.1
v -1 0.1 0
v -1 0.1 -0.1
v -1 0.1 -0.2
v -1 0.2 0.3
v -1 0.2 0.2
v -1 0.2 0.1
v -1 0.2 0
v -1 0.2 -0.1
v -1 0.2 -0.2
v -1 0.3 0.3
v -1 0.3 0.2
v -1 0.3 0.1
v -1 0.3 0
v -1 0.3 -0.1
v -1 0.3 -0.2
v -1 0.6 0.3
v -1 0.6 -0.2
v -0.9 0.6 0.3
v -0.9 0.6 -0.2
v -0.9 0.7 0.3
v -0.9 0.7 -0.2
v -0.8 0.7 0.2
v -0.8 0.7 -0.1
v -0.8 0.8 0.2
v -0.8 0.8 -0.1
v 0.8 0.7 0.2
v 0.8 0.7 -0.1
v 0.8 0.8 0.2
v 0.8 0.8 -0.1
v 0.9 0.6 0.3
v 0.9 0.6 -0.2
v 0.9 0.7 0.3
v 0.9 0.7 -0.2
v 1 0 0.3
v 1 0 -0.2
v 1 0.1 0.3
v 1 0.1 0.2
v 1 0.1 0.1
v 1 0.1 0
v 1 0.1 -0.1
v 1 0.1 -0.2
v 1 0.2 0.3
v 1 0.2 0.2
v 1 0.2 0.1
v 1 0.2 0
v 1 0.2 -0.1
v 1 0.2 -0.2
v 1 0.3 0.3
v 1 0.3 0.2
v 1 0.3 0.1
v 1 0.3 0
v 1 0.3 -0.1
v 1 0.3 -0.2
v 1 0.6 0.3
v 1 0.6 -0.2
v -1 0 0.3
v -1 0.1 0.3
v -1 0.2 0.3
v -1 0.3 0.3
v -1 0.6 0.3
v -0.9 0.1 0.3
v -0.9 0.2 0.3
v -0.9 0.3 0.3
v -0.9 0.6 0.3
v -0.9 0.7 0.3
v -0.8 0.1 0.3
v -0.8 0.2 0.3
v -0.7 0.2 0.3
v -0.7 0.3 0.3
v -0.6 0.1 0.3
v -0.6 0.2 0.3
v -0.6 0.3 0.3
v -0.5 0.1 0.3
v -0.5 0.2 0.3
v -0.4 0.2 0.3
v -0.4 0.3 0.3
v -0.3 0.1 0.3
v -0.3 0.2 0.3
v -0.3 0.3 0.3
v -0.2 0.1 0.3
v -0.2 0.2 0.3
v -0.1 0.2 0.3
v -0.1 0.3 0.3
v 0 0.1 0.3
v 0 0.2 0.3
v 0 0.3 0.3
v 0.1 0.1 0.3
v 0.1 0.2 0.3
v 0.2 0.2 0.3
v 0.2 0.3 0.3
v 0.3 0.1 0.3
v 0.3 0.2 0.3
v 0.3 0.3 0.3
v 0.4 0.1 0.3
v 0.4 0.2 0.3
v 0.5 0.2 0.3
v 0.5 0.3 0.3
v 0.6 0.1 0.3
v 0.6 0.2 0.3
v 0.6 0.3 0.3
v 0.7 0.1 0.3
v 0.7 0.2 0.3
v 0.8 0.2 0.3
v 0.8 0.3 0.3
v 0.9 0.1 0.3
v 0.9 0.2 0.3
v 0.9 0.3 0.3
v 0.9 0.6 0.3
v 0.9 0.7 0.3
v 1 0 0.3
v 1 0.1 0.3
v 1 0.2 0.3
v 1 0.3 0.3
v 1 0.6 0.3
v -0.8 0.7 0.2
v -0.8 0.8 0.2
v 0.8 0.7 0.2
v 0.8 0.8 0.2
v -0.8 0.7 -0.1
v -0.8 0.8 -0.1
v 0.8 0.7 -0.1
v 0.8 0.8 -0.1
v -1 0 -0.2
v -1 0.1 -0.2
v -1 0.2 -0.2
v -1 0.3 -0.2
v -1 0.6 -0.2
v -0.9 0.1 -0.2
v -0.9 0.2 -0.2
v -0.9 0.3 -0.2
v -0.9 0.6 -0.2
v -0.9 0.7 -0.2
v -0.8 0.1 -0.2
v -0.8 0.2 -0.2
v -0.7 0.2 -0.2
v -0.7 0.3 -0.2
v -0.6 0.1 -0.2
v -0.6 0.2 -0.2
v -0.6 0.3 -0.2
v -0.5 0.1 -0.2
v -0.5 0.2 -0.2
v -0.4 0.2 -0.2
v -0.4 0.3 -0.2
v -0.3 0.1 -0.2
v -0.3 0.2 -0.2
v -0.3 0.3 -0.2
v -0.2 0.1 -0.2
v -0.2 0.2 -0.2
v -0.1 0.2 -0.2
v -0.1 0.3 -0.2
v 0 0.1 -0.2
v 0 0.2 -0.2
v 0 0.3 -0.2
v 0.1 0.1 -0.2
v 0.1 0.2 -0.2
v 0.2 0.2 -0.2
v 0.2 0.3 -0.2
v 0.3 0.1 -0.2
v 0.3 0.2 -0.2
v 0.3 0.3 -0.2
v 0.4 0.1 -0.2
v 0.4 0.2 -0.2
v 0.5 0.2 -0.2
v 0.5 0.3 -0.2
v 0.6 0.1 -0.2
v 0.6 0.2 -0.2
v 0.6 0.3 -0.2
v 0.7 0.1 -0.2
v 0.7 0.2 -0.2
v 0.8 0.2 -0.2
v 0.8 0.3 -0.2
v 0.9 0.1 -0.2
v 0.9 0.2 -0.2
v 0.9 0.3 -0.2
v 0.9 0.6 -0.2
v 0.9 0.7 -0.2
v 1 0 -0.2
v 1 0.1 -0.2
v 1 0.2 -0.2
v 1 0.3 -0.2
v 1 0.6 -0.2
v -1 0 0.3
v 1 0 0.3
v -1 0 -0.2
v 1 0 -0.2
v -1 0.6 0.3
v -0.9 0.6 0.3
v 0.9 0.6 0.3
v 1 0.6 0.3
v -1 0.6 -0.2
v -0.9 0.6 -0.2
v 0.9 0.6 -0.2
v 1 0.6 -0.2
v -0.9 0.7 0.3
v 0.9 0.7 0.3
v -0.8 0.7 0.2
v 0.8 0.7 0.2
v -0.8 0.7 -0.1
v 0.8 0.7 -0.1
v -0.9 0.7 -0.2
v 0.9 0.7 -0.2
v -0.8 0.8 0.2
v 0.8 0.8 0.2
v -0.8 0.8 -0.1
v 0.8 0.8 -0.1

# faces
f 3/3/1 2/3/1 1/3/1
f 4/3/1 2/3/1 3/3/1
f 5/3/1 2/3/1 4/3/1
f 6/3/1 2/3/1 5/3/1
f 7/3/1 2/3/1 6/3/1
f 8/3/1 2/3/1 7/3/1
f 9/1/1 4/1/1 3/1/1
f 10/2/1 5/2/1 4/2/1
f 10/1/1 4/1/1 9/1/1
f 11/1/1 6/1/1 5/1/1
f 11/2/1 5/2/1 10/2/1
f 12/2/1 7/2/1 6/2/1
f 12/1/1 6/1/1 11/1/1
f 13/1/1 8/1/1 7/1/1
f 13/2/1 7/2/1 12/2/1
f 14/1/1 8/1/1 13/1/1
f 15/2/1 10/2/1 9/2/1
f 16/1/1 11/1/1 10/1/1
f 16/2/1 10/2/1 15/2/1
f 17/2/1 12/2/1 11/2/1
f 17/1/1 11/1/1 16/1/1
f 18/1/1 13/1/1 12/1/1
f 18/2/1 12/2/1 17/2/1
f 19/2/1 14/2/1 13/2/1
f 19/1/1 13/1/1 18/1/1
f 20/2/1 14/2/1 19/2/1
f 21/3/1 16/3/1 15/3/1
f 21/3/1 17/3/1 16/3/1
f 21/3/1 20/3/1 19/3/1
f 21/3/1 19/3/1 18/3/1
f 21/3/1 18/3/1 17/3/1
f 22/3/1 20/3/1 21/3/1
f 25/3/1 24/3/1 23/3/1
f 26/3/1 24/3/1 25/3/1
f 29/3/1 28/3/1 27/3/1
f 30/3/1 28/3/1 29/3/1
f 31/3/2 32/3/2 33/3/2
f 33/3/2 32/3/2 34/3/2
f 35/3/2 36/3/2 37/3/2
f 37/3/2 36/3/2 38/3/2
f 39/3/2 40/3/2 41/3/2
f 41/3/2 40/3/2 42/3/2
f 42/3/2 40/3/2 43/3/2
f 43/3/2 40/3/2 44/3/2
f 44/3/2 40/3/2 45/3/2
f 45/3/2 40/3/2 46/3/2
f 41/2/2 42/2/2 47/2/2
f 42/1/2 43/1/2 48/1/2
f 47/2/2 42/2/2 48/2/2
f 43/2/2 44/2/2 49/2/2
f 48/1/2 43/1/2 49/1/2
f 44/1/2 45/1/2 50/1/2
f 49/2/2 44/2/2 50/2/2
f 45/2/2 46/2/2 51/2/2
f 50/1/2 45/1/2 51/1/2
f 51/2/2 46/2/2 52/2/2
f 47/1/2 48/1/2 53/1/2
f 48/2/2 49/2/2 54/2/2
f 53/1/2 48/1/2 54/1/2
f 49/1/2 50/1/2 55/1/2
f 54/2/2 49/2/2 55/2/2
f 50/2/2 51/2/2 56/2/2
f 55/1/2 50/1/2 56/1/2
f 51/1/2 52/1/2 57/1/2
f 56/2/2 51/2/2 57/2/2
f 57/1/2 52/1/2 58/1/2
f 53/3/2 54/3/2 59/3/2
f 54/3/2 55/3/2 59/3/2
f 57/3/2 58/3/2 59/3/2
f 56/3/2 57/3/2 59/3/2
f 55/3/2 56/3/2 59/3/2
f 59/3/2 58/3/2 60/3/2
f 66/3/3 62/3/3 61/3/3
f 66/1/3 63/1/3 62/1/3
f 67/2/3 64/2/3 63/2/3
f 67/1/3 63/1/3 66/1/3
f 68/3/3 65/3/3 64/3/3
f 68/2/3 64/2/3 67/2/3
f 69/3/3 65/3/3 68/3/3
f 71/2/3 67/2/3 66/2/3
f 71/3/3 66/3/3 61/3/3
f 72/1/3 68/1/3 67/1/3
f 72/2/3 67/2/3 71/2/3
f 73/1/3 72/1/3 71/1/3
f 73/1/3 68/1/3 72/1/3
f 74/3/3 70/3/3 69/3/3
f 74/1/3 68/1/3 73/1/3
f 74/3/3 69/3/3 68/3/3
f 75/1/3 73/1/3 71/1/3
f 75/3/3 71/3/3 61/3/3
f 76/2/3 74/2/3 73/2/3
f 76/1/3 73/1/3 75/1/3
f 77/3/3 70/3/3 74/3/3
f 77/2/3 74/2/3 76/2/3
f 78/2/3 76/2/3 75/2/3
f 78/3/3 75/3/3 61/3/3
f 79/1/3 77/1/3 76/1/3
f 79/2/3 76/2/3 78/2/3
f 80/1/3 79/1/3 78/1/3
f 80/1/3 77/1/3 79/1/3
f 81/3/3 70/3/3 77/3/3
f 81/1/3 77/1/3 80/1/3
f 82/1/3 80/1/3 78/1/3
f 82/3/3 78/3/3 61/3/3
f 83/2/3 81/2/3 80/2/3
f 83/1/3 80/1/3 82/1/3
f 84/3/3 70/3/3 81/3/3
f 84/2/3 81/2/3 83/2/3
f 85/2/3 83/2/3 82/2/3
f 85/3/3 82/3/3 61/3/3
f 86/1/3 84/1/3 83/1/3
f 86/2/3 83/2/3 85/2/3
f 87/1/3 86/1/3 85/1/3
f 87/1/3 84/1/3 86/1/3
f 88/3/3 70/3/3 84/3/3
f 88/1/3 84/1/3 87/1/3
f 89/1/3 87/1/3 85/1/3
f 89/3/3 85/3/3 61/3/3
f 90/2/3 88/2/3 87/2/3
f 90/1/3 87/1/3 89/1/3
f 91/3/3 70/3/3 88/3/3
f 91/2/3 88/2/3 90/2/3
f 92/2/3 90/2/3 89/2/3
f 92/3/3 89/3/3 61/3/3
f 93/1/3 91/1/3 90/1/3
f 93/2/3 90/2/3 92/2/3
f 94/1/3 93/1/3 92/1/3
f 94/1/3 91/1/3 93/1/3
f 95/3/3 70/3/3 91/3/3
f 95/1/3 91/1/3 94/1/3
f 96/1/3 94/1/3 92/1/3
f 96/3/3 92/3/3 61/3/3
f 97/2/3 95/2/3 94/2/3
f 97/1/3 94/1/3 96/1/3
f 98/3/3 70/3/3 95/3/3
f 98/2/3 95/2/3 97/2/3
f 99/2/3 97/2/3 96/2/3
f 99/3/3 96/3/3 61/3/3
f 100/1/3 98/1/3 97/1/3
f 100/2/3 97/2/3 99/2/3
f 101/1/3 100/1/3 99/1/3
f 101/1/3 98/1/3 100/1/3
f 102/3/3 70/3/3 98/3/3
f 102/1/3 98/1/3 101/1/3
f 103/1/3 101/1/3 99/1/3
f 103/3/3 99/3/3 61/3/3
f 104/2/3 102/2/3 101/2/3
f 104/1/3 101/1/3 103/1/3
f 105/3/3 70/3/3 102/3/3
f 105/2/3 102/2/3 104/2/3
f 106/2/3 104/2/3 103/2/3
f 106/3/3 103/3/3 61/3/3
f 107/1/3 105/1/3 104/1/3
f 107/2/3 104/2/3 106/2/3
f 108/1/3 107/1/3 106/1/3
f 108/1/3 105/1/3 107/1/3
f 109/3/3 70/3/3 105/3/3
f 109/1/3 105/1/3 108/1/3
f 110/1/3 108/1/3 106/1/3
f 110/3/3 106/3/3 61/3/3
f 111/2/3 109/2/3 108/2/3
f 111/1/3 108/1/3 110/1/3
f 112/3/3 70/3/3 109/3/3
f 112/2/3 109/2/3 111/2/3
f 113/3/3 70/3/3 112/3/3
f 114/3/3 70/3/3 113/3/3
f 115/3/3 110/3/3 61/3/3
f 116/2/3 111/2/3 110/2/3
f 116/3/3 110/3/3 115/3/3
f 117/1/3 112/1/3 111/1/3
f 117/2/3 111/2/3 116/2/3
f 118/3/3 113/3/3 112/3/3
f 118/1/3 112/1/3 117/1/3
f 119/3/3 113/3/3 118/3/3
f 122/3/3 121/3/3 120/3/3
f 123/3/3 121/3/3 122/3/3
f 124/3/4 125/3/4 126/3/4
f 126/3/4 125/3/4 127/3/4
f 128/3/4 129/3/4 133/3/4
f 129/1/4 130/1/4 133/1/4
f 130/2/4 131/2/4 134/2/4
f 133/1/4 130/1/4 134/1/4
f 131/3/4 132/3/4 135/3/4
f 134/2/4 131/2/4 135/2/4
f 135/3/4 132/3/4 136/3/4
f 133/2/4 134/2/4 138/2/4
f 128/3/4 133/3/4 138/3/4
f 134/1/4 135/1/4 139/1/4
f 138/2/4 134/2/4 139/2/4
f 138/1/4 139/1/4 140/1/4
f 139/1/4 135/1/4 140/1/4
f 136/3/4 137/3/4 141/3/4
f 140/1/4 135/1/4 141/1/4
f 135/3/4 136/3/4 141/3/4
f 138/1/4 140/1/4 142/1/4
f 128/3/4 138/3/4 142/3/4
f 140/2/4 141/2/4 143/2/4
f 142/1/4 140/1/4 143/1/4
f 141/3/4 137/3/4 144/3/4
f 143/2/4 141/2/4 144/2/4
f 142/2/4 143/2/4 145/2/4
f 128/3/4 142/3/4 145/3/4
f 143/1/4 144/1/4 146/1/4
f 145/2/4 143/2/4 146/2/4
f 145/1/4 146/1/4 147/1/4
f 146/1/4 144/1/4 147/1/4
f 144/3/4 137/3/4 148/3/4
f 147/1/4 144/1/4 148/1/4
f 145/1/4 147/1/4 149/1/4
f 128/3/4 145/3/4 149/3/4
f 147/2/4 148/2/4 150/2/4
f 149/1/4 147/1/4 150/1/4
f 148/3/4 137/3/4 151/3/4
f 150/2/4 148/2/4 151/2/4
f 149/2/4 150/2/4 152/2/4
f 128/3/4 149/3/4 152/3/4
f 150/1/4 151/1/4 153/1/4
f 152/2/4 150/2/4 153/2/4
f 152/1/4 153/1/4 154/1/4
f 153/1/4 151/1/4 154/1/4
f 151/3/4 137/3/4 155/3/4
f 154/1/4 151/1/4 155/1/4
f 152/1/4 154/1/4 156/1/4
f 128/3/4 152/3/4 156/3/4
f 154/2/4 155/2/4 157/2/4
f 156/1/4 154/1/4 157/1/4
f 155/3/4 137/3/4 158/3/4
f 157/2/4 155/2/4 158/2/4
f 156/2/4 157/2/4 159/2/4
f 128/3/4 156/3/4 159/3/4
f 157/1/4 158/1/4 160/1/4
f 159/2/4 157/2/4 160/2/4
f 159/1/4 160/1/4 161/1/4
f 160/1/4 158/1/4 161/1/4
f 158/3/4 137/3/4 162/3/4
f 161/1/4 158/1/4 162/1/4
f 159/1/4 161/1/4 163/1/4
f 128/3/4 159/3/4 163/3/4
f 161/2/4 162/2/4 164/2/4
f 163/1/4 161/1/4 164/1/4
f 162/3/4 137/3/4 165/3/4
f 164/2/4 162/2/4 165/2/4
f 163/2/4 164/2/4 166/2/4
f 128/3/4 163/3/4 166/3/4
f 164/1/4 165/1/4 167/1/4
f 166/2/4 164/2/4 167/2/4
f 166/1/4 167/1/4 168/1/4
f 167/1/4 165/1/4 168/1/4
f 165/3/4 137/3/4 169/3/4
f 168/1/4 165/1/4 169/1/4
f 166/1/4 168/1/4 170/1/4
f 128/3/4 166/3/4 170/3/4
f 168/2/4 169/2/4 171/2/4
f 170/1/4 168/1/4 171/1/4
f 169/3/4 137/3/4 172/3/4
f 171/2/4 169/2/4 172/2/4
f 170/2/4 171/2/4 173/2/4
f 128/3/4 170/3/4 173/3/4
f 171/1/4 172/1/4 174/1/4
f 173/2/4 171/2/4 174/2/4
f 173/1/4 174/1/4 175/1/4
f 174/1/4 172/1/4 175/1/4
f 172/3/4 137/3/4 176/3/4
f 175/1/4 172/1/4 176/1/4
f 173/1/4 175/1/4 177/1/4
f 128/3/4 173/3/4 177/3/4
f 175/2/4 176/2/4 178/2/4
f 177/1/4 175/1/4 178/1/4
f 176/3/4 137/3/4 179/3/4
f 178/2/4 176/2/4 179/2/4
f 179/3/4 137/3/4 180/3/4
f 180/3/4 137/3/4 181/3/4
f 128/3/4 177/3/4 182/3/4
f 177/2/4 178/2/4 183/2/4
f 182/3/4 177/3/4 183/3/4
f 178/1/4 179/1/4 184/1/4
f 183/2/4 178/2/4 184/2/4
f 179/3/4 180/3/4 185/3/4
f 184/1/4 179/1/4 185/1/4
f 185/3/4 180/3/4 186/3/4
f 189/3/5 188/3/5 187/3/5
f 190/3/5 188/3/5 189/3/5
f 191/3/6 192/3/6 195/3/6
f 195/3/6 192/3/6 196/3/6
f 193/3/6 194/3/6 197/3/6
f 197/3/6 194/3/6 198/3/6
f 199/3/6 200/3/6 201/3/6
f 201/3/6 200/3/6 202/3/6
f 199/3/6 201/3/6 203/3/6
f 202/3/6 200/3/6 204/3/6
f 199/3/6 203/3/6 205/3/6
f 203/3/6 204/3/6 205/3/6
f 204/3/6 200/3/6 206/3/6
f 205/3/6 204/3/6 206/3/6
f 207/3/6 208/3/6 209/3/6
f 209/3/6 208/3/6 210/3/6
