# MagicaVoxel @ Ephtracy

# group
o 

# material
mtllib traffic_cone.mtl
usemtl palette

# normals
vn -1 0 0
vn 1 0 0
vn 0 0 1
vn 0 0 -1
vn 0 -1 0
vn 0 1 0

# texcoords
vt 0.0214844 0.5
vt 0.841797 0.5
vt 0.974609 0.5
vt 0.986328 0.5

# verts
v -0.4 0 0.4
v -0.4 0 -0.3
v -0.4 0.1 0.4
v -0.4 0.1 -0.3
v -0.3 0.1 0.3
v -0.3 0.1 -0.2
v -0.3 0.2 0.3
v -0.3 0.2 -0.2
v -0.3 0.3 0.3
v -0.3 0.3 -0.2
v -0.3 0.4 0.3
v -0.3 0.4 -0.2
v -0.2 0.4 0.2
v -0.2 0.4 -0.1
v -0.2 0.5 0.2
v -0.2 0.5 -0.1
v -0.2 0.6 0.2
v -0.2 0.6 -0.1
v -0.1 0.6 0.1
v -0.1 0.6 0
v -0.1 0.7 0.1
v -0.1 0.7 0
v 0 0.6 0.1
v 0 0.6 0
v 0 0.7 0.1
v 0 0.7 0
v 0.1 0.4 0.2
v 0.1 0.4 -0.1
v 0.1 0.5 0.2
v 0.1 0.5 -0.1
v 0.1 0.6 0.2
v 0.1 0.6 -0.1
v 0.2 0.1 0.3
v 0.2 0.1 -0.2
v 0.2 0.2 0.3
v 0.2 0.2 -0.2
v 0.2 0.3 0.3
v 0.2 0.3 -0.2
v 0.2 0.4 0.3
v 0.2 0.4 -0.2
v 0.3 0 0.4
v 0.3 0 -0.3
v 0.3 0.1 0.4
v 0.3 0.1 -0.3
v -0.4 0 0.4
v -0.4 0.1 0.4
v 0.3 0 0.4
v 0.3 0.1 0.4
v -0.3 0.1 0.3
v -0.3 0.2 0.3
v -0.3 0.3 0.3
v -0.3 0.4 0.3
v 0.2 0.1 0.3
v 0.2 0.2 0.3
v 0.2 0.3 0.3
v 0.2 0.4 0.3
v -0.2 0.4 0.2
v -0.2 0.5 0.2
v -0.2 0.6 0.2
v 0.1 0.4 0.2
v 0.1 0.5 0.2
v 0.1 0.6 0.2
v -0.1 0.6 0.1
v -0.1 0.7 0.1
v 0 0.6 0.1
v 0 0.7 0.1
v -0.1 0.6 0
v -0.1 0.7 0
v 0 0.6 0
v 0 0.7 0
v -0.2 0.4 -0.1
v -0.2 0.5 -0.1
v -0.2 0.6 -0.1
v 0.1 0.4 -0.1
v 0.1 0.5 -0.1
v 0.1 0.6 -0.1
v -0.3 0.1 -0.2
v -0.3 0.2 -0.2
v -0.3 0.3 -0.2
v -0.3 0.4 -0.2
v 0.2 0.1 -0.2
v 0.2 0.2 -0.2
v 0.2 0.3 -0.2
v 0.2 0.4 -0.2
v -0.4 0 -0.3
v -0.4 0.1 -0.3
v 0.3 0 -0.3
v 0.3 0.1 -0.3
v -0.4 0 0.4
v 0.3 0 0.4
v -0.3 0 0.3
v 0.2 0 0.3
v -0.3 0 -0.2
v 0.2 0 -0.2
v -0.4 0 -0.3
v 0.3 0 -0.3
v -0.4 0.1 0.4
v 0.3 0.1 0.4
v -0.3 0.1 0.3
v 0.2 0.1 0.3
v -0.3 0.1 -0.2
v 0.2 0.1 -0.2
v -0.4 0.1 -0.3
v 0.3 0.1 -0.3
v -0.3 0.4 0.3
v 0.2 0.4 0.3
v -0.2 0.4 0.2
v 0.1 0.4 0.2
v -0.2 0.4 -0.1
v 0.1 0.4 -0.1
v -0.3 0.4 -0.2
v 0.2 0.4 -0.2
v -0.2 0.6 0.2
v 0.1 0.6 0.2
v -0.1 0.6 0.1
v 0 0.6 0.1
v -0.1 0.6 0
v 0 0.6 0
v -0.2 0.6 -0.1
v 0.1 0.6 -0.1
v -0.1 0.7 0.1
v 0 0.7 0.1
v -0.1 0.7 0
v 0 0.7 0

# faces
f 3/4/1 2/4/1 1/4/1
f 4/4/1 2/4/1 3/4/1
f 7/1/1 6/1/1 5/1/1
f 8/1/1 6/1/1 7/1/1
f 9/4/1 8/4/1 7/4/1
f 10/4/1 8/4/1 9/4/1
f 11/1/1 10/1/1 9/1/1
f 12/1/1 10/1/1 11/1/1
f 15/4/1 14/4/1 13/4/1
f 16/4/1 14/4/1 15/4/1
f 17/1/1 16/1/1 15/1/1
f 18/1/1 16/1/1 17/1/1
f 21/2/1 20/2/1 19/2/1
f 22/2/1 20/2/1 21/2/1
f 23/2/2 24/2/2 25/2/2
f 25/2/2 24/2/2 26/2/2
f 27/4/2 28/4/2 29/4/2
f 29/4/2 28/4/2 30/4/2
f 29/1/2 30/1/2 31/1/2
f 31/1/2 30/1/2 32/1/2
f 33/1/2 34/1/2 35/1/2
f 35/1/2 34/1/2 36/1/2
f 35/4/2 36/4/2 37/4/2
f 37/4/2 36/4/2 38/4/2
f 37/1/2 38/1/2 39/1/2
f 39/1/2 38/1/2 40/1/2
f 41/4/2 42/4/2 43/4/2
f 43/4/2 42/4/2 44/4/2
f 47/4/3 46/4/3 45/4/3
f 48/4/3 46/4/3 47/4/3
f 53/1/3 50/1/3 49/1/3
f 54/4/3 51/4/3 50/4/3
f 54/1/3 50/1/3 53/1/3
f 55/1/3 52/1/3 51/1/3
f 55/4/3 51/4/3 54/4/3
f 56/1/3 52/1/3 55/1/3
f 60/4/3 58/4/3 57/4/3
f 61/1/3 59/1/3 58/1/3
f 61/4/3 58/4/3 60/4/3
f 62/1/3 59/1/3 61/1/3
f 65/2/3 64/2/3 63/2/3
f 66/2/3 64/2/3 65/2/3
f 67/2/4 68/2/4 69/2/4
f 69/2/4 68/2/4 70/2/4
f 71/4/4 72/4/4 74/4/4
f 72/1/4 73/1/4 75/1/4
f 74/4/4 72/4/4 75/4/4
f 75/1/4 73/1/4 76/1/4
f 77/1/4 78/1/4 81/1/4
f 78/4/4 79/4/4 82/4/4
f 81/1/4 78/1/4 82/1/4
f 79/1/4 80/1/4 83/1/4
f 82/4/4 79/4/4 83/4/4
f 83/1/4 80/1/4 84/1/4
f 85/4/4 86/4/4 87/4/4
f 87/4/4 86/4/4 88/4/4
f 91/4/5 90/4/5 89/4/5
f 92/4/5 90/4/5 91/4/5
f 93/4/5 91/4/5 89/4/5
f 93/3/5 92/3/5 91/3/5
f 94/4/5 90/4/5 92/4/5
f 94/3/5 92/3/5 93/3/5
f 95/4/5 93/4/5 89/4/5
f 95/4/5 94/4/5 93/4/5
f 96/4/5 90/4/5 94/4/5
f 96/4/5 94/4/5 95/4/5
f 97/4/6 98/4/6 99/4/6
f 99/4/6 98/4/6 100/4/6
f 97/4/6 99/4/6 101/4/6
f 100/4/6 98/4/6 102/4/6
f 97/4/6 101/4/6 103/4/6
f 101/4/6 102/4/6 103/4/6
f 102/4/6 98/4/6 104/4/6
f 103/4/6 102/4/6 104/4/6
f 105/1/6 106/1/6 107/1/6
f 107/1/6 106/1/6 108/1/6
f 105/1/6 107/1/6 109/1/6
f 108/1/6 106/1/6 110/1/6
f 105/1/6 109/1/6 111/1/6
f 109/1/6 110/1/6 111/1/6
f 110/1/6 106/1/6 112/1/6
f 111/1/6 110/1/6 112/1/6
f 113/1/6 114/1/6 115/1/6
f 115/1/6 114/1/6 116/1/6
f 113/1/6 115/1/6 117/1/6
f 116/1/6 114/1/6 118/1/6
f 113/1/6 117/1/6 119/1/6
f 117/1/6 118/1/6 119/1/6
f 118/1/6 114/1/6 120/1/6
f 119/1/6 118/1/6 120/1/6
f 121/2/6 122/2/6 123/2/6
f 123/2/6 122/2/6 124/2/6
