# MagicaVoxel @ Ephtracy

# group
o shop-chips-L3

# material
mtllib shop-chips-3-shop-chips-L3.mtl
usemtl palette

# normals
vn -1 0 0
vn 1 0 0
vn 0 0 1
vn 0 0 -1
vn 0 -1 0
vn 0 1 0

# texcoords
vt 0.146484 0.5
vt 0.150391 0.5
vt 0.666016 0.5
vt 0.912109 0.5
vt 0.966797 0.5
vt 0.990234 0.5

# verts
v -6 16 7.5
v -6 16 -5.5
v -6 24 7.5
v -6 24 -5.5
v -5 16.6 8.3
v -5 16.6 7.5
v -5 17 8.3
v -5 17 8.2
v -5 17 7.8
v -5 19.3 8.2
v -5 19.3 7.8
v -5 19.4 8.3
v -5 19.4 7.8
v -5 23.4 7.8
v -5 23.4 7.5
v -4.9 16.5 8.2
v -4.9 16.5 7.5
v -4.9 16.6 8.2
v -4.9 16.6 7.5
v 4.7 17 7.8
v 4.7 17 7.5
v 4.7 23.1 7.8
v 4.7 23.1 7.5
v 4.9 17 8.3
v 4.9 17 8.2
v 4.9 19.3 8.3
v 4.9 19.3 8.2
v 4.9 19.3 7.8
v 4.9 19.4 8.2
v 4.9 19.4 7.8
v -4.9 17 8.3
v -4.9 17 8.2
v -4.9 19.3 8.3
v -4.9 19.3 8.2
v -4.9 19.3 7.8
v -4.9 19.4 8.2
v -4.9 19.4 7.8
v -4.7 17 7.8
v -4.7 17 7.5
v -4.7 23.1 7.8
v -4.7 23.1 7.5
v 4.9 16.5 8.2
v 4.9 16.5 7.5
v 4.9 16.6 8.2
v 4.9 16.6 7.5
v 5 16.6 8.3
v 5 16.6 7.5
v 5 17 8.3
v 5 17 8.2
v 5 17 7.8
v 5 19.3 8.2
v 5 19.3 7.8
v 5 19.4 8.3
v 5 19.4 7.8
v 5 23.4 7.8
v 5 23.4 7.5
v 6 16 7.5
v 6 16 -5.5
v 6 24 7.5
v 6 24 -5.5
v -5 16.6 8.3
v -5 17 8.3
v -5 19.4 8.3
v -4.9 17 8.3
v -4.9 19.3 8.3
v 4.9 17 8.3
v 4.9 19.3 8.3
v 5 16.6 8.3
v 5 17 8.3
v 5 19.4 8.3
v -4.9 16.5 8.2
v -4.9 16.6 8.2
v 4.9 16.5 8.2
v 4.9 16.6 8.2
v -5 17 7.8
v -5 19.3 7.8
v -5 19.4 7.8
v -5 23.4 7.8
v -4.9 19.3 7.8
v -4.9 19.4 7.8
v -4.7 17 7.8
v -4.7 23.1 7.8
v 4.7 17 7.8
v 4.7 23.1 7.8
v 4.9 19.3 7.8
v 4.9 19.4 7.8
v 5 17 7.8
v 5 19.3 7.8
v 5 19.4 7.8
v 5 23.4 7.8
v -6 16 7.5
v -6 24 7.5
v -5 16.6 7.5
v -5 23.4 7.5
v -4.9 16.5 7.5
v -4.9 16.6 7.5
v -4.7 17 7.5
v -4.7 23.1 7.5
v -4.5 17.1 7.5
v -4.5 22.9 7.5
v -4.4 17.1 7.5
v -4.4 22.9 7.5
v -4.1 17.1 7.5
v -4.1 22.9 7.5
v -4 17.1 7.5
v -4 22.9 7.5
v -3.7 17.1 7.5
v -3.7 22.9 7.5
v -3.6 17.1 7.5
v -3.6 22.9 7.5
v -3.3 17.1 7.5
v -3.3 22.9 7.5
v -3.2 17.1 7.5
v -3.2 22.9 7.5
v -2.9 17.1 7.5
v -2.9 22.9 7.5
v -2.8 17.1 7.5
v -2.8 22.9 7.5
v -2.5 17.1 7.5
v -2.5 22.9 7.5
v -2.4 17.1 7.5
v -2.4 22.9 7.5
v -2.1 17.1 7.5
v -2.1 22.9 7.5
v -2 17.1 7.5
v -2 22.9 7.5
v -1.7 17.1 7.5
v -1.7 22.9 7.5
v -1.6 17.1 7.5
v -1.6 22.9 7.5
v -1.3 17.1 7.5
v -1.3 22.9 7.5
v -1.2 17.1 7.5
v -1.2 22.9 7.5
v -0.9 17.1 7.5
v -0.9 22.9 7.5
v -0.8 17.1 7.5
v -0.8 22.9 7.5
v -0.5 17.1 7.5
v -0.5 22.9 7.5
v -0.4 17.1 7.5
v -0.4 22.9 7.5
v -0.0999999 17.1 7.5
v -0.0999999 22.9 7.5
v 0 17.1 7.5
v 0 22.9 7.5
v 0.3 17.1 7.5
v 0.3 22.9 7.5
v 0.4 17.1 7.5
v 0.4 22.9 7.5
v 0.7 17.1 7.5
v 0.7 22.9 7.5
v 0.8 17.1 7.5
v 0.8 22.9 7.5
v 1 17.1 7.5
v 1 22.9 7.5
v 1.1 17.1 7.5
v 1.1 22.9 7.5
v 1.4 17.1 7.5
v 1.4 22.9 7.5
v 1.5 17.1 7.5
v 1.5 22.9 7.5
v 1.8 17.1 7.5
v 1.8 22.9 7.5
v 1.9 17.1 7.5
v 1.9 22.9 7.5
v 2.2 17.1 7.5
v 2.2 22.9 7.5
v 2.3 17.1 7.5
v 2.3 22.9 7.5
v 2.6 17.1 7.5
v 2.6 22.9 7.5
v 2.7 17.1 7.5
v 2.7 22.9 7.5
v 3 17.1 7.5
v 3 22.9 7.5
v 3.1 17.1 7.5
v 3.1 22.9 7.5
v 3.4 17.1 7.5
v 3.4 22.9 7.5
v 3.5 17.1 7.5
v 3.5 22.9 7.5
v 3.8 17.1 7.5
v 3.8 22.9 7.5
v 3.9 17.1 7.5
v 3.9 22.9 7.5
v 4.2 17.1 7.5
v 4.2 22.9 7.5
v 4.3 17.1 7.5
v 4.3 22.9 7.5
v 4.5 17.1 7.5
v 4.5 22.9 7.5
v 4.7 17 7.5
v 4.7 23.1 7.5
v 4.9 16.5 7.5
v 4.9 16.6 7.5
v 5 16.6 7.5
v 5 23.4 7.5
v 6 16 7.5
v 6 24 7.5
v -5 17 8.2
v -5 19.3 8.2
v -4.9 17 8.2
v -4.9 19.3 8.2
v -4.9 19.4 8.2
v 4.9 17 8.2
v 4.9 19.3 8.2
v 4.9 19.4 8.2
v 5 17 8.2
v 5 19.3 8.2
v -6 16 -5.5
v -6 24 -5.5
v 6 16 -5.5
v 6 24 -5.5
v -6 16 7.5
v 6 16 7.5
v -5.6 16 7.2
v 5.2 16 7.2
v -2.7 16 -0.500001
v 5.2 16 -0.500001
v -5.6 16 -5.2
v -2.7 16 -5.2
v -6 16 -5.5
v 6 16 -5.5
v -4.9 16.5 8.2
v 4.9 16.5 8.2
v -4.9 16.5 7.5
v 4.9 16.5 7.5
v -5 16.6 8.3
v 5 16.6 8.3
v -4.9 16.6 8.2
v 4.9 16.6 8.2
v -5 16.6 7.5
v -4.9 16.6 7.5
v 4.9 16.6 7.5
v 5 16.6 7.5
v -4.9 19.3 8.3
v 4.9 19.3 8.3
v -5 19.3 8.2
v -4.9 19.3 8.2
v 4.9 19.3 8.2
v 5 19.3 8.2
v -5 19.3 7.8
v -4.9 19.3 7.8
v 4.9 19.3 7.8
v 5 19.3 7.8
v -4.7 23.1 7.8
v 4.7 23.1 7.8
v -4.7 23.1 7.5
v 4.7 23.1 7.5
v -4.9 17 8.3
v 4.9 17 8.3
v -5 17 8.2
v -4.9 17 8.2
v 4.9 17 8.2
v 5 17 8.2
v -5 17 7.8
v -4.7 17 7.8
v 4.7 17 7.8
v 5 17 7.8
v -4.7 17 7.5
v 4.7 17 7.5
v -5 19.4 8.3
v 5 19.4 8.3
v -4.9 19.4 8.2
v 4.9 19.4 8.2
v -5 19.4 7.8
v -4.9 19.4 7.8
v 4.9 19.4 7.8
v 5 19.4 7.8
v -5 23.4 7.8
v 5 23.4 7.8
v -5 23.4 7.5
v 5 23.4 7.5
v -6 24 7.5
v 6 24 7.5
v -6 24 -5.5
v 6 24 -5.5

# faces
f 3/3/1 2/3/1 1/3/1
f 4/3/1 2/3/1 3/3/1
f 7/5/1 6/5/1 5/5/1
f 8/5/1 6/5/1 7/5/1
f 9/5/1 6/5/1 8/5/1
f 10/6/1 8/6/1 7/6/1
f 11/5/1 6/5/1 9/5/1
f 12/6/1 10/6/1 7/6/1
f 12/6/1 11/6/1 10/6/1
f 13/5/1 6/5/1 11/5/1
f 13/6/1 11/6/1 12/6/1
f 14/5/1 6/5/1 13/5/1
f 15/5/1 6/5/1 14/5/1
f 18/5/1 17/5/1 16/5/1
f 19/5/1 17/5/1 18/5/1
f 22/5/1 21/5/1 20/5/1
f 23/5/1 21/5/1 22/5/1
f 26/6/1 25/6/1 24/6/1
f 27/6/1 25/6/1 26/6/1
f 29/6/1 28/6/1 27/6/1
f 30/6/1 28/6/1 29/6/1
f 31/6/2 32/6/2 33/6/2
f 33/6/2 32/6/2 34/6/2
f 34/6/2 35/6/2 36/6/2
f 36/6/2 35/6/2 37/6/2
f 38/5/2 39/5/2 40/5/2
f 40/5/2 39/5/2 41/5/2
f 42/5/2 43/5/2 44/5/2
f 44/5/2 43/5/2 45/5/2
f 46/5/2 47/5/2 48/5/2
f 48/5/2 47/5/2 49/5/2
f 49/5/2 47/5/2 50/5/2
f 48/6/2 49/6/2 51/6/2
f 50/5/2 47/5/2 52/5/2
f 48/6/2 51/6/2 53/6/2
f 51/6/2 52/6/2 53/6/2
f 52/5/2 47/5/2 54/5/2
f 53/6/2 52/6/2 54/6/2
f 54/5/2 47/5/2 55/5/2
f 55/5/2 47/5/2 56/5/2
f 57/3/2 58/3/2 59/3/2
f 59/3/2 58/3/2 60/3/2
f 64/5/3 62/5/3 61/5/3
f 64/6/3 63/6/3 62/6/3
f 65/6/3 63/6/3 64/6/3
f 66/5/3 64/5/3 61/5/3
f 67/6/3 63/6/3 65/6/3
f 68/5/3 66/5/3 61/5/3
f 69/6/3 67/6/3 66/6/3
f 69/5/3 66/5/3 68/5/3
f 70/6/3 63/6/3 67/6/3
f 70/6/3 67/6/3 69/6/3
f 73/5/3 72/5/3 71/5/3
f 74/5/3 72/5/3 73/5/3
f 79/5/3 76/5/3 75/5/3
f 80/5/3 78/5/3 77/5/3
f 81/5/3 79/5/3 75/5/3
f 81/5/3 80/5/3 79/5/3
f 82/5/3 78/5/3 80/5/3
f 82/5/3 80/5/3 81/5/3
f 84/5/3 78/5/3 82/5/3
f 85/5/3 84/5/3 83/5/3
f 86/5/3 84/5/3 85/5/3
f 87/5/3 85/5/3 83/5/3
f 88/5/3 85/5/3 87/5/3
f 89/5/3 84/5/3 86/5/3
f 90/5/3 78/5/3 84/5/3
f 90/5/3 84/5/3 89/5/3
f 93/3/3 92/3/3 91/3/3
f 94/3/3 92/3/3 93/3/3
f 95/3/3 93/3/3 91/3/3
f 96/3/3 93/3/3 95/3/3
f 99/4/3 98/4/3 97/4/3
f 100/4/3 98/4/3 99/4/3
f 101/4/3 99/4/3 97/4/3
f 101/1/3 100/1/3 99/1/3
f 102/4/3 98/4/3 100/4/3
f 102/1/3 100/1/3 101/1/3
f 103/4/3 101/4/3 97/4/3
f 103/2/3 102/2/3 101/2/3
f 104/4/3 98/4/3 102/4/3
f 104/2/3 102/2/3 103/2/3
f 105/4/3 103/4/3 97/4/3
f 105/1/3 104/1/3 103/1/3
f 106/4/3 98/4/3 104/4/3
f 106/1/3 104/1/3 105/1/3
f 107/4/3 105/4/3 97/4/3
f 107/2/3 106/2/3 105/2/3
f 108/4/3 98/4/3 106/4/3
f 108/2/3 106/2/3 107/2/3
f 109/4/3 107/4/3 97/4/3
f 109/1/3 108/1/3 107/1/3
f 110/4/3 98/4/3 108/4/3
f 110/1/3 108/1/3 109/1/3
f 111/4/3 109/4/3 97/4/3
f 111/2/3 110/2/3 109/2/3
f 112/4/3 98/4/3 110/4/3
f 112/2/3 110/2/3 111/2/3
f 113/4/3 111/4/3 97/4/3
f 113/1/3 112/1/3 111/1/3
f 114/4/3 98/4/3 112/4/3
f 114/1/3 112/1/3 113/1/3
f 115/4/3 113/4/3 97/4/3
f 115/2/3 114/2/3 113/2/3
f 116/4/3 98/4/3 114/4/3
f 116/2/3 114/2/3 115/2/3
f 117/4/3 115/4/3 97/4/3
f 117/1/3 116/1/3 115/1/3
f 118/4/3 98/4/3 116/4/3
f 118/1/3 116/1/3 117/1/3
f 119/4/3 117/4/3 97/4/3
f 119/2/3 118/2/3 117/2/3
f 120/4/3 98/4/3 118/4/3
f 120/2/3 118/2/3 119/2/3
f 121/4/3 119/4/3 97/4/3
f 121/1/3 120/1/3 119/1/3
f 122/4/3 98/4/3 120/4/3
f 122/1/3 120/1/3 121/1/3
f 123/4/3 121/4/3 97/4/3
f 123/2/3 122/2/3 121/2/3
f 124/4/3 98/4/3 122/4/3
f 124/2/3 122/2/3 123/2/3
f 125/4/3 123/4/3 97/4/3
f 125/1/3 124/1/3 123/1/3
f 126/4/3 98/4/3 124/4/3
f 126/1/3 124/1/3 125/1/3
f 127/4/3 125/4/3 97/4/3
f 127/2/3 126/2/3 125/2/3
f 128/4/3 98/4/3 126/4/3
f 128/2/3 126/2/3 127/2/3
f 129/4/3 127/4/3 97/4/3
f 129/1/3 128/1/3 127/1/3
f 130/4/3 98/4/3 128/4/3
f 130/1/3 128/1/3 129/1/3
f 131/4/3 129/4/3 97/4/3
f 131/2/3 130/2/3 129/2/3
f 132/4/3 98/4/3 130/4/3
f 132/2/3 130/2/3 131/2/3
f 133/4/3 131/4/3 97/4/3
f 133/1/3 132/1/3 131/1/3
f 134/4/3 98/4/3 132/4/3
f 134/1/3 132/1/3 133/1/3
f 135/4/3 133/4/3 97/4/3
f 135/2/3 134/2/3 133/2/3
f 136/4/3 98/4/3 134/4/3
f 136/2/3 134/2/3 135/2/3
f 137/4/3 135/4/3 97/4/3
f 137/1/3 136/1/3 135/1/3
f 138/4/3 98/4/3 136/4/3
f 138/1/3 136/1/3 137/1/3
f 139/4/3 137/4/3 97/4/3
f 139/2/3 138/2/3 137/2/3
f 140/4/3 98/4/3 138/4/3
f 140/2/3 138/2/3 139/2/3
f 141/4/3 139/4/3 97/4/3
f 141/1/3 140/1/3 139/1/3
f 142/4/3 98/4/3 140/4/3
f 142/1/3 140/1/3 141/1/3
f 143/4/3 141/4/3 97/4/3
f 143/2/3 142/2/3 141/2/3
f 144/4/3 98/4/3 142/4/3
f 144/2/3 142/2/3 143/2/3
f 145/4/3 143/4/3 97/4/3
f 145/1/3 144/1/3 143/1/3
f 146/4/3 98/4/3 144/4/3
f 146/1/3 144/1/3 145/1/3
f 147/4/3 145/4/3 97/4/3
f 147/2/3 146/2/3 145/2/3
f 148/4/3 98/4/3 146/4/3
f 148/2/3 146/2/3 147/2/3
f 149/4/3 147/4/3 97/4/3
f 149/1/3 148/1/3 147/1/3
f 150/4/3 98/4/3 148/4/3
f 150/1/3 148/1/3 149/1/3
f 151/4/3 149/4/3 97/4/3
f 151/2/3 150/2/3 149/2/3
f 152/4/3 98/4/3 150/4/3
f 152/2/3 150/2/3 151/2/3
f 153/4/3 151/4/3 97/4/3
f 153/1/3 152/1/3 151/1/3
f 154/4/3 98/4/3 152/4/3
f 154/1/3 152/1/3 153/1/3
f 155/4/3 153/4/3 97/4/3
f 155/4/3 154/4/3 153/4/3
f 156/4/3 98/4/3 154/4/3
f 156/4/3 154/4/3 155/4/3
f 157/4/3 155/4/3 97/4/3
f 157/1/3 156/1/3 155/1/3
f 158/4/3 98/4/3 156/4/3
f 158/1/3 156/1/3 157/1/3
f 159/4/3 157/4/3 97/4/3
f 159/2/3 158/2/3 157/2/3
f 160/4/3 98/4/3 158/4/3
f 160/2/3 158/2/3 159/2/3
f 161/4/3 159/4/3 97/4/3
f 161/1/3 160/1/3 159/1/3
f 162/4/3 98/4/3 160/4/3
f 162/1/3 160/1/3 161/1/3
f 163/4/3 161/4/3 97/4/3
f 163/2/3 162/2/3 161/2/3
f 164/4/3 98/4/3 162/4/3
f 164/2/3 162/2/3 163/2/3
f 165/4/3 163/4/3 97/4/3
f 165/1/3 164/1/3 163/1/3
f 166/4/3 98/4/3 164/4/3
f 166/1/3 164/1/3 165/1/3
f 167/4/3 165/4/3 97/4/3
f 167/2/3 166/2/3 165/2/3
f 168/4/3 98/4/3 166/4/3
f 168/2/3 166/2/3 167/2/3
f 169/4/3 167/4/3 97/4/3
f 169/1/3 168/1/3 167/1/3
f 170/4/3 98/4/3 168/4/3
f 170/1/3 168/1/3 169/1/3
f 171/4/3 169/4/3 97/4/3
f 171/2/3 170/2/3 169/2/3
f 172/4/3 98/4/3 170/4/3
f 172/2/3 170/2/3 171/2/3
f 173/4/3 171/4/3 97/4/3
f 173/1/3 172/1/3 171/1/3
f 174/4/3 98/4/3 172/4/3
f 174/1/3 172/1/3 173/1/3
f 175/4/3 173/4/3 97/4/3
f 175/2/3 174/2/3 173/2/3
f 176/4/3 98/4/3 174/4/3
f 176/2/3 174/2/3 175/2/3
f 177/4/3 175/4/3 97/4/3
f 177/1/3 176/1/3 175/1/3
f 178/4/3 98/4/3 176/4/3
f 178/1/3 176/1/3 177/1/3
f 179/4/3 177/4/3 97/4/3
f 179/2/3 178/2/3 177/2/3
f 180/4/3 98/4/3 178/4/3
f 180/2/3 178/2/3 179/2/3
f 181/4/3 179/4/3 97/4/3
f 181/1/3 180/1/3 179/1/3
f 182/4/3 98/4/3 180/4/3
f 182/1/3 180/1/3 181/1/3
f 183/4/3 181/4/3 97/4/3
f 183/2/3 182/2/3 181/2/3
f 184/4/3 98/4/3 182/4/3
f 184/2/3 182/2/3 183/2/3
f 185/4/3 183/4/3 97/4/3
f 185/1/3 184/1/3 183/1/3
f 186/4/3 98/4/3 184/4/3
f 186/1/3 184/1/3 185/1/3
f 187/4/3 185/4/3 97/4/3
f 187/2/3 186/2/3 185/2/3
f 188/4/3 98/4/3 186/4/3
f 188/2/3 186/2/3 187/2/3
f 189/4/3 187/4/3 97/4/3
f 189/1/3 188/1/3 187/1/3
f 190/4/3 98/4/3 188/4/3
f 190/1/3 188/1/3 189/1/3
f 191/4/3 189/4/3 97/4/3
f 191/2/3 190/2/3 189/2/3
f 192/4/3 98/4/3 190/4/3
f 192/2/3 190/2/3 191/2/3
f 193/4/3 191/4/3 97/4/3
f 193/4/3 192/4/3 191/4/3
f 194/4/3 98/4/3 192/4/3
f 194/4/3 192/4/3 193/4/3
f 195/3/3 95/3/3 91/3/3
f 197/3/3 196/3/3 195/3/3
f 198/3/3 92/3/3 94/3/3
f 199/3/3 197/3/3 195/3/3
f 199/3/3 198/3/3 197/3/3
f 199/3/3 195/3/3 91/3/3
f 200/3/3 92/3/3 198/3/3
f 200/3/3 198/3/3 199/3/3
f 201/6/4 202/6/4 203/6/4
f 203/6/4 202/6/4 204/6/4
f 204/6/4 205/6/4 207/6/4
f 207/6/4 205/6/4 208/6/4
f 206/6/4 207/6/4 209/6/4
f 209/6/4 207/6/4 210/6/4
f 211/3/4 212/3/4 213/3/4
f 213/3/4 212/3/4 214/3/4
f 217/3/5 216/3/5 215/3/5
f 218/3/5 216/3/5 217/3/5
f 219/5/5 218/5/5 217/5/5
f 220/3/5 216/3/5 218/3/5
f 220/5/5 218/5/5 219/5/5
f 221/3/5 217/3/5 215/3/5
f 221/5/5 219/5/5 217/5/5
f 222/3/5 220/3/5 219/3/5
f 222/5/5 219/5/5 221/5/5
f 223/3/5 221/3/5 215/3/5
f 223/3/5 222/3/5 221/3/5
f 224/3/5 216/3/5 220/3/5
f 224/3/5 222/3/5 223/3/5
f 224/3/5 220/3/5 222/3/5
f 227/5/5 226/5/5 225/5/5
f 228/5/5 226/5/5 227/5/5
f 231/5/5 230/5/5 229/5/5
f 232/5/5 230/5/5 231/5/5
f 233/5/5 231/5/5 229/5/5
f 234/5/5 231/5/5 233/5/5
f 235/5/5 230/5/5 232/5/5
f 236/5/5 230/5/5 235/5/5
f 240/6/5 238/6/5 237/6/5
f 241/6/5 238/6/5 240/6/5
f 243/6/5 240/6/5 239/6/5
f 244/6/5 240/6/5 243/6/5
f 245/6/5 242/6/5 241/6/5
f 246/6/5 242/6/5 245/6/5
f 249/5/5 248/5/5 247/5/5
f 250/5/5 248/5/5 249/5/5
f 251/5/6 252/5/6 254/5/6
f 254/5/6 252/5/6 255/5/6
f 253/5/6 254/5/6 257/5/6
f 255/5/6 256/5/6 257/5/6
f 254/5/6 255/5/6 257/5/6
f 257/5/6 256/5/6 258/5/6
f 258/5/6 256/5/6 259/5/6
f 259/5/6 256/5/6 260/5/6
f 258/5/6 259/5/6 261/5/6
f 261/5/6 259/5/6 262/5/6
f 263/6/6 264/6/6 265/6/6
f 265/6/6 264/6/6 266/6/6
f 263/6/6 265/6/6 267/6/6
f 267/6/6 265/6/6 268/6/6
f 266/6/6 264/6/6 269/6/6
f 269/6/6 264/6/6 270/6/6
f 271/5/6 272/5/6 273/5/6
f 273/5/6 272/5/6 274/5/6
f 275/3/6 276/3/6 277/3/6
f 277/3/6 276/3/6 278/3/6
